<svg width="11" height="10" viewBox="0 0 11 10" fill="none" xmlns="http://www.w3.org/2000/svg">
<path d="M7.32438 5L10.0607 2.26371C10.3964 1.92793 10.3964 1.38352 10.0607 1.04746L9.45254 0.439336C9.11676 0.103555 8.57234 0.103555 8.23629 0.439336L5.5 3.17562L2.76371 0.439336C2.42793 0.103555 1.88352 0.103555 1.54746 0.439336L0.939336 1.04746C0.603555 1.38324 0.603555 1.92766 0.939336 2.26371L3.67562 5L0.939336 7.73629C0.603555 8.07207 0.603555 8.61648 0.939336 8.95254L1.54746 9.56066C1.88324 9.89645 2.42793 9.89645 2.76371 9.56066L5.5 6.82438L8.23629 9.56066C8.57207 9.89645 9.11676 9.89645 9.45254 9.56066L10.0607 8.95254C10.3964 8.61676 10.3964 8.07234 10.0607 7.73629L7.32438 5Z" fill="#0A84FF"/>
</svg>
