<svg width="1039" height="736" viewBox="0 0 1039 736" fill="none" xmlns="http://www.w3.org/2000/svg">
<g clip-path="url(#clip0_2276_443)">
<path d="M-8.85725e-05 1.03974C0.81157 1.03974 1.46955 0.57425 1.46955 3.50475e-05C1.46955 -0.57418 0.81157 -1.03967 -8.85725e-05 -1.03967C-0.811747 -1.03967 -1.46973 -0.57418 -1.46973 3.50475e-05C-1.46973 0.57425 -0.811747 1.03974 -8.85725e-05 1.03974Z" fill="#3C3A40"/>
<path d="M57.7221 1.03974C58.5337 1.03974 59.1917 0.57425 59.1917 3.50475e-05C59.1917 -0.57418 58.5337 -1.03967 57.7221 -1.03967C56.9104 -1.03967 56.2524 -0.57418 56.2524 3.50475e-05C56.2524 0.57425 56.9104 1.03974 57.7221 1.03974Z" fill="#3C3A40"/>
<path d="M115.444 1.03974C116.256 1.03974 116.914 0.57425 116.914 3.50475e-05C116.914 -0.57418 116.256 -1.03967 115.444 -1.03967C114.633 -1.03967 113.975 -0.57418 113.975 3.50475e-05C113.975 0.57425 114.633 1.03974 115.444 1.03974Z" fill="#3C3A40"/>
<path d="M173.167 1.03974C173.978 1.03974 174.636 0.57425 174.636 3.50475e-05C174.636 -0.57418 173.978 -1.03967 173.167 -1.03967C172.355 -1.03967 171.697 -0.57418 171.697 3.50475e-05C171.697 0.57425 172.355 1.03974 173.167 1.03974Z" fill="#3C3A40"/>
<path d="M230.889 1.03974C231.7 1.03974 232.358 0.57425 232.358 3.50475e-05C232.358 -0.57418 231.7 -1.03967 230.889 -1.03967C230.077 -1.03967 229.419 -0.57418 229.419 3.50475e-05C229.419 0.57425 230.077 1.03974 230.889 1.03974Z" fill="#3C3A40"/>
<path d="M288.611 1.03974C289.423 1.03974 290.081 0.57425 290.081 3.50475e-05C290.081 -0.57418 289.423 -1.03967 288.611 -1.03967C287.799 -1.03967 287.141 -0.57418 287.141 3.50475e-05C287.141 0.57425 287.799 1.03974 288.611 1.03974Z" fill="#3C3A40"/>
<path d="M346.333 1.03974C347.145 1.03974 347.803 0.57425 347.803 3.50475e-05C347.803 -0.57418 347.145 -1.03967 346.333 -1.03967C345.522 -1.03967 344.864 -0.57418 344.864 3.50475e-05C344.864 0.57425 345.522 1.03974 346.333 1.03974Z" fill="#3C3A40"/>
<path d="M404.056 1.03974C404.867 1.03974 405.525 0.57425 405.525 3.50475e-05C405.525 -0.57418 404.867 -1.03967 404.056 -1.03967C403.244 -1.03967 402.586 -0.57418 402.586 3.50475e-05C402.586 0.57425 403.244 1.03974 404.056 1.03974Z" fill="#3C3A40"/>
<path d="M461.778 1.03974C462.589 1.03974 463.247 0.57425 463.247 3.50475e-05C463.247 -0.57418 462.589 -1.03967 461.778 -1.03967C460.966 -1.03967 460.308 -0.57418 460.308 3.50475e-05C460.308 0.57425 460.966 1.03974 461.778 1.03974Z" fill="#3C3A40"/>
<path d="M519.5 1.03974C520.312 1.03974 520.97 0.57425 520.97 3.50475e-05C520.97 -0.57418 520.312 -1.03967 519.5 -1.03967C518.688 -1.03967 518.03 -0.57418 518.03 3.50475e-05C518.03 0.57425 518.688 1.03974 519.5 1.03974Z" fill="#3C3A40"/>
<path d="M577.222 1.03974C578.034 1.03974 578.692 0.57425 578.692 3.50475e-05C578.692 -0.57418 578.034 -1.03967 577.222 -1.03967C576.41 -1.03967 575.752 -0.57418 575.752 3.50475e-05C575.752 0.57425 576.41 1.03974 577.222 1.03974Z" fill="#3C3A40"/>
<path d="M634.944 1.03974C635.756 1.03974 636.414 0.57425 636.414 3.50475e-05C636.414 -0.57418 635.756 -1.03967 634.944 -1.03967C634.133 -1.03967 633.475 -0.57418 633.475 3.50475e-05C633.475 0.57425 634.133 1.03974 634.944 1.03974Z" fill="#3C3A40"/>
<path d="M692.667 1.03974C693.478 1.03974 694.136 0.57425 694.136 3.50475e-05C694.136 -0.57418 693.478 -1.03967 692.667 -1.03967C691.855 -1.03967 691.197 -0.57418 691.197 3.50475e-05C691.197 0.57425 691.855 1.03974 692.667 1.03974Z" fill="#3C3A40"/>
<path d="M750.389 1.03974C751.201 1.03974 751.858 0.57425 751.858 3.50475e-05C751.858 -0.57418 751.201 -1.03967 750.389 -1.03967C749.577 -1.03967 748.919 -0.57418 748.919 3.50475e-05C748.919 0.57425 749.577 1.03974 750.389 1.03974Z" fill="#3C3A40"/>
<path d="M808.111 1.03974C808.923 1.03974 809.581 0.57425 809.581 3.50475e-05C809.581 -0.57418 808.923 -1.03967 808.111 -1.03967C807.299 -1.03967 806.641 -0.57418 806.641 3.50475e-05C806.641 0.57425 807.299 1.03974 808.111 1.03974Z" fill="#3C3A40"/>
<path d="M865.833 1.03974C866.645 1.03974 867.303 0.57425 867.303 3.50475e-05C867.303 -0.57418 866.645 -1.03967 865.833 -1.03967C865.022 -1.03967 864.364 -0.57418 864.364 3.50475e-05C864.364 0.57425 865.022 1.03974 865.833 1.03974Z" fill="#3C3A40"/>
<path d="M923.556 1.03974C924.367 1.03974 925.025 0.57425 925.025 3.50475e-05C925.025 -0.57418 924.367 -1.03967 923.556 -1.03967C922.744 -1.03967 922.086 -0.57418 922.086 3.50475e-05C922.086 0.57425 922.744 1.03974 923.556 1.03974Z" fill="#3C3A40"/>
<path d="M981.278 1.03974C982.089 1.03974 982.747 0.57425 982.747 3.50475e-05C982.747 -0.57418 982.089 -1.03967 981.278 -1.03967C980.466 -1.03967 979.808 -0.57418 979.808 3.50475e-05C979.808 0.57425 980.466 1.03974 981.278 1.03974Z" fill="#3C3A40"/>
<path d="M1039 1.03974C1039.81 1.03974 1040.47 0.57425 1040.47 3.50475e-05C1040.47 -0.57418 1039.81 -1.03967 1039 -1.03967C1038.19 -1.03967 1037.53 -0.57418 1037.53 3.50475e-05C1037.53 0.57425 1038.19 1.03974 1039 1.03974Z" fill="#3C3A40"/>
<path d="M-8.85725e-05 41.8759C0.81157 41.8759 1.46955 41.4104 1.46955 40.8362C1.46955 40.262 0.81157 39.7965 -8.85725e-05 39.7965C-0.811747 39.7965 -1.46973 40.262 -1.46973 40.8362C-1.46973 41.4104 -0.811747 41.8759 -8.85725e-05 41.8759Z" fill="#3C3A40"/>
<path d="M57.7221 41.8759C58.5337 41.8759 59.1917 41.4104 59.1917 40.8362C59.1917 40.262 58.5337 39.7965 57.7221 39.7965C56.9104 39.7965 56.2524 40.262 56.2524 40.8362C56.2524 41.4104 56.9104 41.8759 57.7221 41.8759Z" fill="#3C3A40"/>
<path d="M115.444 41.8759C116.256 41.8759 116.914 41.4104 116.914 40.8362C116.914 40.262 116.256 39.7965 115.444 39.7965C114.633 39.7965 113.975 40.262 113.975 40.8362C113.975 41.4104 114.633 41.8759 115.444 41.8759Z" fill="#3C3A40"/>
<path d="M173.167 41.8759C173.978 41.8759 174.636 41.4104 174.636 40.8362C174.636 40.262 173.978 39.7965 173.167 39.7965C172.355 39.7965 171.697 40.262 171.697 40.8362C171.697 41.4104 172.355 41.8759 173.167 41.8759Z" fill="#3C3A40"/>
<path d="M230.889 41.8759C231.7 41.8759 232.358 41.4104 232.358 40.8362C232.358 40.262 231.7 39.7965 230.889 39.7965C230.077 39.7965 229.419 40.262 229.419 40.8362C229.419 41.4104 230.077 41.8759 230.889 41.8759Z" fill="#3C3A40"/>
<path d="M288.611 41.8759C289.423 41.8759 290.081 41.4104 290.081 40.8362C290.081 40.262 289.423 39.7965 288.611 39.7965C287.799 39.7965 287.141 40.262 287.141 40.8362C287.141 41.4104 287.799 41.8759 288.611 41.8759Z" fill="#3C3A40"/>
<path d="M346.333 41.8759C347.145 41.8759 347.803 41.4104 347.803 40.8362C347.803 40.262 347.145 39.7965 346.333 39.7965C345.522 39.7965 344.864 40.262 344.864 40.8362C344.864 41.4104 345.522 41.8759 346.333 41.8759Z" fill="#3C3A40"/>
<path d="M404.056 41.8759C404.867 41.8759 405.525 41.4104 405.525 40.8362C405.525 40.262 404.867 39.7965 404.056 39.7965C403.244 39.7965 402.586 40.262 402.586 40.8362C402.586 41.4104 403.244 41.8759 404.056 41.8759Z" fill="#3C3A40"/>
<path d="M461.778 41.8759C462.589 41.8759 463.247 41.4104 463.247 40.8362C463.247 40.262 462.589 39.7965 461.778 39.7965C460.966 39.7965 460.308 40.262 460.308 40.8362C460.308 41.4104 460.966 41.8759 461.778 41.8759Z" fill="#3C3A40"/>
<path d="M519.5 41.8759C520.312 41.8759 520.97 41.4104 520.97 40.8362C520.97 40.262 520.312 39.7965 519.5 39.7965C518.688 39.7965 518.03 40.262 518.03 40.8362C518.03 41.4104 518.688 41.8759 519.5 41.8759Z" fill="#3C3A40"/>
<path d="M577.222 41.8759C578.034 41.8759 578.692 41.4104 578.692 40.8362C578.692 40.262 578.034 39.7965 577.222 39.7965C576.41 39.7965 575.752 40.262 575.752 40.8362C575.752 41.4104 576.41 41.8759 577.222 41.8759Z" fill="#3C3A40"/>
<path d="M634.944 41.8759C635.756 41.8759 636.414 41.4104 636.414 40.8362C636.414 40.262 635.756 39.7965 634.944 39.7965C634.133 39.7965 633.475 40.262 633.475 40.8362C633.475 41.4104 634.133 41.8759 634.944 41.8759Z" fill="#3C3A40"/>
<path d="M692.667 41.8759C693.478 41.8759 694.136 41.4104 694.136 40.8362C694.136 40.262 693.478 39.7965 692.667 39.7965C691.855 39.7965 691.197 40.262 691.197 40.8362C691.197 41.4104 691.855 41.8759 692.667 41.8759Z" fill="#3C3A40"/>
<path d="M750.389 41.8759C751.201 41.8759 751.858 41.4104 751.858 40.8362C751.858 40.262 751.201 39.7965 750.389 39.7965C749.577 39.7965 748.919 40.262 748.919 40.8362C748.919 41.4104 749.577 41.8759 750.389 41.8759Z" fill="#3C3A40"/>
<path d="M808.111 41.8759C808.923 41.8759 809.581 41.4104 809.581 40.8362C809.581 40.262 808.923 39.7965 808.111 39.7965C807.299 39.7965 806.641 40.262 806.641 40.8362C806.641 41.4104 807.299 41.8759 808.111 41.8759Z" fill="#3C3A40"/>
<path d="M865.833 41.8759C866.645 41.8759 867.303 41.4104 867.303 40.8362C867.303 40.262 866.645 39.7965 865.833 39.7965C865.022 39.7965 864.364 40.262 864.364 40.8362C864.364 41.4104 865.022 41.8759 865.833 41.8759Z" fill="#3C3A40"/>
<path d="M923.556 41.8759C924.367 41.8759 925.025 41.4104 925.025 40.8362C925.025 40.262 924.367 39.7965 923.556 39.7965C922.744 39.7965 922.086 40.262 922.086 40.8362C922.086 41.4104 922.744 41.8759 923.556 41.8759Z" fill="#3C3A40"/>
<path d="M981.278 41.8759C982.089 41.8759 982.747 41.4104 982.747 40.8362C982.747 40.262 982.089 39.7965 981.278 39.7965C980.466 39.7965 979.808 40.262 979.808 40.8362C979.808 41.4104 980.466 41.8759 981.278 41.8759Z" fill="#3C3A40"/>
<path d="M1039 41.8759C1039.81 41.8759 1040.47 41.4104 1040.47 40.8362C1040.47 40.262 1039.81 39.7965 1039 39.7965C1038.19 39.7965 1037.53 40.262 1037.53 40.8362C1037.53 41.4104 1038.19 41.8759 1039 41.8759Z" fill="#3C3A40"/>
<path d="M-8.85725e-05 82.712C0.81157 82.712 1.46955 82.2465 1.46955 81.6723C1.46955 81.0981 0.81157 80.6326 -8.85725e-05 80.6326C-0.811747 80.6326 -1.46973 81.0981 -1.46973 81.6723C-1.46973 82.2465 -0.811747 82.712 -8.85725e-05 82.712Z" fill="#3C3A40"/>
<path d="M57.7221 82.712C58.5337 82.712 59.1917 82.2465 59.1917 81.6723C59.1917 81.0981 58.5337 80.6326 57.7221 80.6326C56.9104 80.6326 56.2524 81.0981 56.2524 81.6723C56.2524 82.2465 56.9104 82.712 57.7221 82.712Z" fill="#3C3A40"/>
<path d="M115.444 82.712C116.256 82.712 116.914 82.2465 116.914 81.6723C116.914 81.0981 116.256 80.6326 115.444 80.6326C114.633 80.6326 113.975 81.0981 113.975 81.6723C113.975 82.2465 114.633 82.712 115.444 82.712Z" fill="#3C3A40"/>
<path d="M173.167 82.712C173.978 82.712 174.636 82.2465 174.636 81.6723C174.636 81.0981 173.978 80.6326 173.167 80.6326C172.355 80.6326 171.697 81.0981 171.697 81.6723C171.697 82.2465 172.355 82.712 173.167 82.712Z" fill="#3C3A40"/>
<path d="M230.889 82.712C231.7 82.712 232.358 82.2465 232.358 81.6723C232.358 81.0981 231.7 80.6326 230.889 80.6326C230.077 80.6326 229.419 81.0981 229.419 81.6723C229.419 82.2465 230.077 82.712 230.889 82.712Z" fill="#3C3A40"/>
<path d="M288.611 82.712C289.423 82.712 290.081 82.2465 290.081 81.6723C290.081 81.0981 289.423 80.6326 288.611 80.6326C287.799 80.6326 287.141 81.0981 287.141 81.6723C287.141 82.2465 287.799 82.712 288.611 82.712Z" fill="#3C3A40"/>
<path d="M346.333 82.712C347.145 82.712 347.803 82.2465 347.803 81.6723C347.803 81.0981 347.145 80.6326 346.333 80.6326C345.522 80.6326 344.864 81.0981 344.864 81.6723C344.864 82.2465 345.522 82.712 346.333 82.712Z" fill="#3C3A40"/>
<path d="M404.056 82.712C404.867 82.712 405.525 82.2465 405.525 81.6723C405.525 81.0981 404.867 80.6326 404.056 80.6326C403.244 80.6326 402.586 81.0981 402.586 81.6723C402.586 82.2465 403.244 82.712 404.056 82.712Z" fill="#3C3A40"/>
<path d="M461.778 82.712C462.589 82.712 463.247 82.2465 463.247 81.6723C463.247 81.0981 462.589 80.6326 461.778 80.6326C460.966 80.6326 460.308 81.0981 460.308 81.6723C460.308 82.2465 460.966 82.712 461.778 82.712Z" fill="#3C3A40"/>
<path d="M519.5 82.712C520.312 82.712 520.97 82.2465 520.97 81.6723C520.97 81.0981 520.312 80.6326 519.5 80.6326C518.688 80.6326 518.03 81.0981 518.03 81.6723C518.03 82.2465 518.688 82.712 519.5 82.712Z" fill="#3C3A40"/>
<path d="M577.222 82.712C578.034 82.712 578.692 82.2465 578.692 81.6723C578.692 81.0981 578.034 80.6326 577.222 80.6326C576.41 80.6326 575.752 81.0981 575.752 81.6723C575.752 82.2465 576.41 82.712 577.222 82.712Z" fill="#3C3A40"/>
<path d="M634.944 82.712C635.756 82.712 636.414 82.2465 636.414 81.6723C636.414 81.0981 635.756 80.6326 634.944 80.6326C634.133 80.6326 633.475 81.0981 633.475 81.6723C633.475 82.2465 634.133 82.712 634.944 82.712Z" fill="#3C3A40"/>
<path d="M692.667 82.712C693.478 82.712 694.136 82.2465 694.136 81.6723C694.136 81.0981 693.478 80.6326 692.667 80.6326C691.855 80.6326 691.197 81.0981 691.197 81.6723C691.197 82.2465 691.855 82.712 692.667 82.712Z" fill="#3C3A40"/>
<path d="M750.389 82.712C751.201 82.712 751.858 82.2465 751.858 81.6723C751.858 81.0981 751.201 80.6326 750.389 80.6326C749.577 80.6326 748.919 81.0981 748.919 81.6723C748.919 82.2465 749.577 82.712 750.389 82.712Z" fill="#3C3A40"/>
<path d="M808.111 82.712C808.923 82.712 809.581 82.2465 809.581 81.6723C809.581 81.0981 808.923 80.6326 808.111 80.6326C807.299 80.6326 806.641 81.0981 806.641 81.6723C806.641 82.2465 807.299 82.712 808.111 82.712Z" fill="#3C3A40"/>
<path d="M865.833 82.712C866.645 82.712 867.303 82.2465 867.303 81.6723C867.303 81.0981 866.645 80.6326 865.833 80.6326C865.022 80.6326 864.364 81.0981 864.364 81.6723C864.364 82.2465 865.022 82.712 865.833 82.712Z" fill="#3C3A40"/>
<path d="M923.556 82.712C924.367 82.712 925.025 82.2465 925.025 81.6723C925.025 81.0981 924.367 80.6326 923.556 80.6326C922.744 80.6326 922.086 81.0981 922.086 81.6723C922.086 82.2465 922.744 82.712 923.556 82.712Z" fill="#3C3A40"/>
<path d="M981.278 82.712C982.089 82.712 982.747 82.2465 982.747 81.6723C982.747 81.0981 982.089 80.6326 981.278 80.6326C980.466 80.6326 979.808 81.0981 979.808 81.6723C979.808 82.2465 980.466 82.712 981.278 82.712Z" fill="#3C3A40"/>
<path d="M1039 82.712C1039.81 82.712 1040.47 82.2465 1040.47 81.6723C1040.47 81.0981 1039.81 80.6326 1039 80.6326C1038.19 80.6326 1037.53 81.0981 1037.53 81.6723C1037.53 82.2465 1038.19 82.712 1039 82.712Z" fill="#3C3A40"/>
<path d="M-8.85725e-05 123.548C0.81157 123.548 1.46955 123.083 1.46955 122.508C1.46955 121.934 0.81157 121.469 -8.85725e-05 121.469C-0.811747 121.469 -1.46973 121.934 -1.46973 122.508C-1.46973 123.083 -0.811747 123.548 -8.85725e-05 123.548Z" fill="#3C3A40"/>
<path d="M57.7221 123.548C58.5337 123.548 59.1917 123.083 59.1917 122.508C59.1917 121.934 58.5337 121.469 57.7221 121.469C56.9104 121.469 56.2524 121.934 56.2524 122.508C56.2524 123.083 56.9104 123.548 57.7221 123.548Z" fill="#3C3A40"/>
<path d="M115.444 123.548C116.256 123.548 116.914 123.083 116.914 122.508C116.914 121.934 116.256 121.469 115.444 121.469C114.633 121.469 113.975 121.934 113.975 122.508C113.975 123.083 114.633 123.548 115.444 123.548Z" fill="#3C3A40"/>
<path d="M173.167 123.548C173.978 123.548 174.636 123.083 174.636 122.508C174.636 121.934 173.978 121.469 173.167 121.469C172.355 121.469 171.697 121.934 171.697 122.508C171.697 123.083 172.355 123.548 173.167 123.548Z" fill="#3C3A40"/>
<path d="M230.889 123.548C231.7 123.548 232.358 123.083 232.358 122.508C232.358 121.934 231.7 121.469 230.889 121.469C230.077 121.469 229.419 121.934 229.419 122.508C229.419 123.083 230.077 123.548 230.889 123.548Z" fill="#3C3A40"/>
<path d="M288.611 123.548C289.423 123.548 290.081 123.083 290.081 122.508C290.081 121.934 289.423 121.469 288.611 121.469C287.799 121.469 287.141 121.934 287.141 122.508C287.141 123.083 287.799 123.548 288.611 123.548Z" fill="#3C3A40"/>
<path d="M346.333 123.548C347.145 123.548 347.803 123.083 347.803 122.508C347.803 121.934 347.145 121.469 346.333 121.469C345.522 121.469 344.864 121.934 344.864 122.508C344.864 123.083 345.522 123.548 346.333 123.548Z" fill="#3C3A40"/>
<path d="M404.056 123.548C404.867 123.548 405.525 123.083 405.525 122.508C405.525 121.934 404.867 121.469 404.056 121.469C403.244 121.469 402.586 121.934 402.586 122.508C402.586 123.083 403.244 123.548 404.056 123.548Z" fill="#3C3A40"/>
<path d="M461.778 123.548C462.589 123.548 463.247 123.083 463.247 122.508C463.247 121.934 462.589 121.469 461.778 121.469C460.966 121.469 460.308 121.934 460.308 122.508C460.308 123.083 460.966 123.548 461.778 123.548Z" fill="#3C3A40"/>
<path d="M519.5 123.548C520.312 123.548 520.97 123.083 520.97 122.508C520.97 121.934 520.312 121.469 519.5 121.469C518.688 121.469 518.03 121.934 518.03 122.508C518.03 123.083 518.688 123.548 519.5 123.548Z" fill="#3C3A40"/>
<path d="M577.222 123.548C578.034 123.548 578.692 123.083 578.692 122.508C578.692 121.934 578.034 121.469 577.222 121.469C576.41 121.469 575.752 121.934 575.752 122.508C575.752 123.083 576.41 123.548 577.222 123.548Z" fill="#3C3A40"/>
<path d="M634.944 123.548C635.756 123.548 636.414 123.083 636.414 122.508C636.414 121.934 635.756 121.469 634.944 121.469C634.133 121.469 633.475 121.934 633.475 122.508C633.475 123.083 634.133 123.548 634.944 123.548Z" fill="#3C3A40"/>
<path d="M692.667 123.548C693.478 123.548 694.136 123.083 694.136 122.508C694.136 121.934 693.478 121.469 692.667 121.469C691.855 121.469 691.197 121.934 691.197 122.508C691.197 123.083 691.855 123.548 692.667 123.548Z" fill="#3C3A40"/>
<path d="M750.389 123.548C751.201 123.548 751.858 123.083 751.858 122.508C751.858 121.934 751.201 121.469 750.389 121.469C749.577 121.469 748.919 121.934 748.919 122.508C748.919 123.083 749.577 123.548 750.389 123.548Z" fill="#3C3A40"/>
<path d="M808.111 123.548C808.923 123.548 809.581 123.083 809.581 122.508C809.581 121.934 808.923 121.469 808.111 121.469C807.299 121.469 806.641 121.934 806.641 122.508C806.641 123.083 807.299 123.548 808.111 123.548Z" fill="#3C3A40"/>
<path d="M865.833 123.548C866.645 123.548 867.303 123.083 867.303 122.508C867.303 121.934 866.645 121.469 865.833 121.469C865.022 121.469 864.364 121.934 864.364 122.508C864.364 123.083 865.022 123.548 865.833 123.548Z" fill="#3C3A40"/>
<path d="M923.556 123.548C924.367 123.548 925.025 123.083 925.025 122.508C925.025 121.934 924.367 121.469 923.556 121.469C922.744 121.469 922.086 121.934 922.086 122.508C922.086 123.083 922.744 123.548 923.556 123.548Z" fill="#3C3A40"/>
<path d="M981.278 123.548C982.089 123.548 982.747 123.083 982.747 122.508C982.747 121.934 982.089 121.469 981.278 121.469C980.466 121.469 979.808 121.934 979.808 122.508C979.808 123.083 980.466 123.548 981.278 123.548Z" fill="#3C3A40"/>
<path d="M1039 123.548C1039.81 123.548 1040.47 123.083 1040.47 122.508C1040.47 121.934 1039.81 121.469 1039 121.469C1038.19 121.469 1037.53 121.934 1037.53 122.508C1037.53 123.083 1038.19 123.548 1039 123.548Z" fill="#3C3A40"/>
<path d="M-8.85725e-05 164.384C0.81157 164.384 1.46955 163.919 1.46955 163.344C1.46955 162.77 0.81157 162.305 -8.85725e-05 162.305C-0.811747 162.305 -1.46973 162.77 -1.46973 163.344C-1.46973 163.919 -0.811747 164.384 -8.85725e-05 164.384Z" fill="#3C3A40"/>
<path d="M57.7221 164.384C58.5337 164.384 59.1917 163.919 59.1917 163.344C59.1917 162.77 58.5337 162.305 57.7221 162.305C56.9104 162.305 56.2524 162.77 56.2524 163.344C56.2524 163.919 56.9104 164.384 57.7221 164.384Z" fill="#3C3A40"/>
<path d="M115.444 164.384C116.256 164.384 116.914 163.919 116.914 163.344C116.914 162.77 116.256 162.305 115.444 162.305C114.633 162.305 113.975 162.77 113.975 163.344C113.975 163.919 114.633 164.384 115.444 164.384Z" fill="#3C3A40"/>
<path d="M173.167 164.384C173.978 164.384 174.636 163.919 174.636 163.344C174.636 162.77 173.978 162.305 173.167 162.305C172.355 162.305 171.697 162.77 171.697 163.344C171.697 163.919 172.355 164.384 173.167 164.384Z" fill="#3C3A40"/>
<path d="M230.889 164.384C231.7 164.384 232.358 163.919 232.358 163.344C232.358 162.77 231.7 162.305 230.889 162.305C230.077 162.305 229.419 162.77 229.419 163.344C229.419 163.919 230.077 164.384 230.889 164.384Z" fill="#3C3A40"/>
<path d="M288.611 164.384C289.423 164.384 290.081 163.919 290.081 163.344C290.081 162.77 289.423 162.305 288.611 162.305C287.799 162.305 287.141 162.77 287.141 163.344C287.141 163.919 287.799 164.384 288.611 164.384Z" fill="#3C3A40"/>
<path d="M346.333 164.384C347.145 164.384 347.803 163.919 347.803 163.344C347.803 162.77 347.145 162.305 346.333 162.305C345.522 162.305 344.864 162.77 344.864 163.344C344.864 163.919 345.522 164.384 346.333 164.384Z" fill="#3C3A40"/>
<path d="M404.056 164.384C404.867 164.384 405.525 163.919 405.525 163.344C405.525 162.77 404.867 162.305 404.056 162.305C403.244 162.305 402.586 162.77 402.586 163.344C402.586 163.919 403.244 164.384 404.056 164.384Z" fill="#3C3A40"/>
<path d="M461.778 164.384C462.589 164.384 463.247 163.919 463.247 163.344C463.247 162.77 462.589 162.305 461.778 162.305C460.966 162.305 460.308 162.77 460.308 163.344C460.308 163.919 460.966 164.384 461.778 164.384Z" fill="#3C3A40"/>
<path d="M519.5 164.384C520.312 164.384 520.97 163.919 520.97 163.344C520.97 162.77 520.312 162.305 519.5 162.305C518.688 162.305 518.03 162.77 518.03 163.344C518.03 163.919 518.688 164.384 519.5 164.384Z" fill="#3C3A40"/>
<path d="M577.222 164.384C578.034 164.384 578.692 163.919 578.692 163.344C578.692 162.77 578.034 162.305 577.222 162.305C576.41 162.305 575.752 162.77 575.752 163.344C575.752 163.919 576.41 164.384 577.222 164.384Z" fill="#3C3A40"/>
<path d="M634.944 164.384C635.756 164.384 636.414 163.919 636.414 163.344C636.414 162.77 635.756 162.305 634.944 162.305C634.133 162.305 633.475 162.77 633.475 163.344C633.475 163.919 634.133 164.384 634.944 164.384Z" fill="#3C3A40"/>
<path d="M692.667 164.384C693.478 164.384 694.136 163.919 694.136 163.344C694.136 162.77 693.478 162.305 692.667 162.305C691.855 162.305 691.197 162.77 691.197 163.344C691.197 163.919 691.855 164.384 692.667 164.384Z" fill="#3C3A40"/>
<path d="M750.389 164.384C751.201 164.384 751.858 163.919 751.858 163.344C751.858 162.77 751.201 162.305 750.389 162.305C749.577 162.305 748.919 162.77 748.919 163.344C748.919 163.919 749.577 164.384 750.389 164.384Z" fill="#3C3A40"/>
<path d="M808.111 164.384C808.923 164.384 809.581 163.919 809.581 163.344C809.581 162.77 808.923 162.305 808.111 162.305C807.299 162.305 806.641 162.77 806.641 163.344C806.641 163.919 807.299 164.384 808.111 164.384Z" fill="#3C3A40"/>
<path d="M865.833 164.384C866.645 164.384 867.303 163.919 867.303 163.344C867.303 162.77 866.645 162.305 865.833 162.305C865.022 162.305 864.364 162.77 864.364 163.344C864.364 163.919 865.022 164.384 865.833 164.384Z" fill="#3C3A40"/>
<path d="M923.556 164.384C924.367 164.384 925.025 163.919 925.025 163.344C925.025 162.77 924.367 162.305 923.556 162.305C922.744 162.305 922.086 162.77 922.086 163.344C922.086 163.919 922.744 164.384 923.556 164.384Z" fill="#3C3A40"/>
<path d="M981.278 164.384C982.089 164.384 982.747 163.919 982.747 163.344C982.747 162.77 982.089 162.305 981.278 162.305C980.466 162.305 979.808 162.77 979.808 163.344C979.808 163.919 980.466 164.384 981.278 164.384Z" fill="#3C3A40"/>
<path d="M1039 164.384C1039.81 164.384 1040.47 163.919 1040.47 163.344C1040.47 162.77 1039.81 162.305 1039 162.305C1038.19 162.305 1037.53 162.77 1037.53 163.344C1037.53 163.919 1038.19 164.384 1039 164.384Z" fill="#3C3A40"/>
<path d="M-8.85725e-05 205.22C0.81157 205.22 1.46955 204.755 1.46955 204.18C1.46955 203.606 0.81157 203.141 -8.85725e-05 203.141C-0.811747 203.141 -1.46973 203.606 -1.46973 204.18C-1.46973 204.755 -0.811747 205.22 -8.85725e-05 205.22Z" fill="#3C3A40"/>
<path d="M57.7221 205.22C58.5337 205.22 59.1917 204.755 59.1917 204.18C59.1917 203.606 58.5337 203.141 57.7221 203.141C56.9104 203.141 56.2524 203.606 56.2524 204.18C56.2524 204.755 56.9104 205.22 57.7221 205.22Z" fill="#3C3A40"/>
<path d="M115.444 205.22C116.256 205.22 116.914 204.755 116.914 204.18C116.914 203.606 116.256 203.141 115.444 203.141C114.633 203.141 113.975 203.606 113.975 204.18C113.975 204.755 114.633 205.22 115.444 205.22Z" fill="#3C3A40"/>
<path d="M173.167 205.22C173.978 205.22 174.636 204.755 174.636 204.18C174.636 203.606 173.978 203.141 173.167 203.141C172.355 203.141 171.697 203.606 171.697 204.18C171.697 204.755 172.355 205.22 173.167 205.22Z" fill="#3C3A40"/>
<path d="M230.889 205.22C231.7 205.22 232.358 204.755 232.358 204.18C232.358 203.606 231.7 203.141 230.889 203.141C230.077 203.141 229.419 203.606 229.419 204.18C229.419 204.755 230.077 205.22 230.889 205.22Z" fill="#3C3A40"/>
<path d="M288.611 205.22C289.423 205.22 290.081 204.755 290.081 204.18C290.081 203.606 289.423 203.141 288.611 203.141C287.799 203.141 287.141 203.606 287.141 204.18C287.141 204.755 287.799 205.22 288.611 205.22Z" fill="#3C3A40"/>
<path d="M346.333 205.22C347.145 205.22 347.803 204.755 347.803 204.18C347.803 203.606 347.145 203.141 346.333 203.141C345.522 203.141 344.864 203.606 344.864 204.18C344.864 204.755 345.522 205.22 346.333 205.22Z" fill="#3C3A40"/>
<path d="M404.056 205.22C404.867 205.22 405.525 204.755 405.525 204.18C405.525 203.606 404.867 203.141 404.056 203.141C403.244 203.141 402.586 203.606 402.586 204.18C402.586 204.755 403.244 205.22 404.056 205.22Z" fill="#3C3A40"/>
<path d="M461.778 205.22C462.589 205.22 463.247 204.755 463.247 204.18C463.247 203.606 462.589 203.141 461.778 203.141C460.966 203.141 460.308 203.606 460.308 204.18C460.308 204.755 460.966 205.22 461.778 205.22Z" fill="#3C3A40"/>
<path d="M519.5 205.22C520.312 205.22 520.97 204.755 520.97 204.18C520.97 203.606 520.312 203.141 519.5 203.141C518.688 203.141 518.03 203.606 518.03 204.18C518.03 204.755 518.688 205.22 519.5 205.22Z" fill="#3C3A40"/>
<path d="M577.222 205.22C578.034 205.22 578.692 204.755 578.692 204.18C578.692 203.606 578.034 203.141 577.222 203.141C576.41 203.141 575.752 203.606 575.752 204.18C575.752 204.755 576.41 205.22 577.222 205.22Z" fill="#3C3A40"/>
<path d="M634.944 205.22C635.756 205.22 636.414 204.755 636.414 204.18C636.414 203.606 635.756 203.141 634.944 203.141C634.133 203.141 633.475 203.606 633.475 204.18C633.475 204.755 634.133 205.22 634.944 205.22Z" fill="#3C3A40"/>
<path d="M692.667 205.22C693.478 205.22 694.136 204.755 694.136 204.18C694.136 203.606 693.478 203.141 692.667 203.141C691.855 203.141 691.197 203.606 691.197 204.18C691.197 204.755 691.855 205.22 692.667 205.22Z" fill="#3C3A40"/>
<path d="M750.389 205.22C751.201 205.22 751.858 204.755 751.858 204.18C751.858 203.606 751.201 203.141 750.389 203.141C749.577 203.141 748.919 203.606 748.919 204.18C748.919 204.755 749.577 205.22 750.389 205.22Z" fill="#3C3A40"/>
<path d="M808.111 205.22C808.923 205.22 809.581 204.755 809.581 204.18C809.581 203.606 808.923 203.141 808.111 203.141C807.299 203.141 806.641 203.606 806.641 204.18C806.641 204.755 807.299 205.22 808.111 205.22Z" fill="#3C3A40"/>
<path d="M865.833 205.22C866.645 205.22 867.303 204.755 867.303 204.18C867.303 203.606 866.645 203.141 865.833 203.141C865.022 203.141 864.364 203.606 864.364 204.18C864.364 204.755 865.022 205.22 865.833 205.22Z" fill="#3C3A40"/>
<path d="M923.556 205.22C924.367 205.22 925.025 204.755 925.025 204.18C925.025 203.606 924.367 203.141 923.556 203.141C922.744 203.141 922.086 203.606 922.086 204.18C922.086 204.755 922.744 205.22 923.556 205.22Z" fill="#3C3A40"/>
<path d="M981.278 205.22C982.089 205.22 982.747 204.755 982.747 204.18C982.747 203.606 982.089 203.141 981.278 203.141C980.466 203.141 979.808 203.606 979.808 204.18C979.808 204.755 980.466 205.22 981.278 205.22Z" fill="#3C3A40"/>
<path d="M1039 205.22C1039.81 205.22 1040.47 204.755 1040.47 204.18C1040.47 203.606 1039.81 203.141 1039 203.141C1038.19 203.141 1037.53 203.606 1037.53 204.18C1037.53 204.755 1038.19 205.22 1039 205.22Z" fill="#3C3A40"/>
<path d="M-8.85725e-05 246.056C0.81157 246.056 1.46955 245.591 1.46955 245.016C1.46955 244.442 0.81157 243.977 -8.85725e-05 243.977C-0.811747 243.977 -1.46973 244.442 -1.46973 245.016C-1.46973 245.591 -0.811747 246.056 -8.85725e-05 246.056Z" fill="#3C3A40"/>
<path d="M57.7221 246.056C58.5337 246.056 59.1917 245.591 59.1917 245.016C59.1917 244.442 58.5337 243.977 57.7221 243.977C56.9104 243.977 56.2524 244.442 56.2524 245.016C56.2524 245.591 56.9104 246.056 57.7221 246.056Z" fill="#3C3A40"/>
<path d="M115.444 246.056C116.256 246.056 116.914 245.591 116.914 245.016C116.914 244.442 116.256 243.977 115.444 243.977C114.633 243.977 113.975 244.442 113.975 245.016C113.975 245.591 114.633 246.056 115.444 246.056Z" fill="#3C3A40"/>
<path d="M173.167 246.056C173.978 246.056 174.636 245.591 174.636 245.016C174.636 244.442 173.978 243.977 173.167 243.977C172.355 243.977 171.697 244.442 171.697 245.016C171.697 245.591 172.355 246.056 173.167 246.056Z" fill="#3C3A40"/>
<path d="M230.889 246.056C231.7 246.056 232.358 245.591 232.358 245.016C232.358 244.442 231.7 243.977 230.889 243.977C230.077 243.977 229.419 244.442 229.419 245.016C229.419 245.591 230.077 246.056 230.889 246.056Z" fill="#3C3A40"/>
<path d="M288.611 246.056C289.423 246.056 290.081 245.591 290.081 245.016C290.081 244.442 289.423 243.977 288.611 243.977C287.799 243.977 287.141 244.442 287.141 245.016C287.141 245.591 287.799 246.056 288.611 246.056Z" fill="#3C3A40"/>
<path d="M346.333 246.056C347.145 246.056 347.803 245.591 347.803 245.016C347.803 244.442 347.145 243.977 346.333 243.977C345.522 243.977 344.864 244.442 344.864 245.016C344.864 245.591 345.522 246.056 346.333 246.056Z" fill="#3C3A40"/>
<path d="M404.056 246.056C404.867 246.056 405.525 245.591 405.525 245.016C405.525 244.442 404.867 243.977 404.056 243.977C403.244 243.977 402.586 244.442 402.586 245.016C402.586 245.591 403.244 246.056 404.056 246.056Z" fill="#3C3A40"/>
<path d="M461.778 246.056C462.589 246.056 463.247 245.591 463.247 245.016C463.247 244.442 462.589 243.977 461.778 243.977C460.966 243.977 460.308 244.442 460.308 245.016C460.308 245.591 460.966 246.056 461.778 246.056Z" fill="#3C3A40"/>
<path d="M519.5 246.056C520.312 246.056 520.97 245.591 520.97 245.016C520.97 244.442 520.312 243.977 519.5 243.977C518.688 243.977 518.03 244.442 518.03 245.016C518.03 245.591 518.688 246.056 519.5 246.056Z" fill="#3C3A40"/>
<path d="M577.222 246.056C578.034 246.056 578.692 245.591 578.692 245.016C578.692 244.442 578.034 243.977 577.222 243.977C576.41 243.977 575.752 244.442 575.752 245.016C575.752 245.591 576.41 246.056 577.222 246.056Z" fill="#3C3A40"/>
<path d="M634.944 246.056C635.756 246.056 636.414 245.591 636.414 245.016C636.414 244.442 635.756 243.977 634.944 243.977C634.133 243.977 633.475 244.442 633.475 245.016C633.475 245.591 634.133 246.056 634.944 246.056Z" fill="#3C3A40"/>
<path d="M692.667 246.056C693.478 246.056 694.136 245.591 694.136 245.016C694.136 244.442 693.478 243.977 692.667 243.977C691.855 243.977 691.197 244.442 691.197 245.016C691.197 245.591 691.855 246.056 692.667 246.056Z" fill="#3C3A40"/>
<path d="M750.389 246.056C751.201 246.056 751.858 245.591 751.858 245.016C751.858 244.442 751.201 243.977 750.389 243.977C749.577 243.977 748.919 244.442 748.919 245.016C748.919 245.591 749.577 246.056 750.389 246.056Z" fill="#3C3A40"/>
<path d="M808.111 246.056C808.923 246.056 809.581 245.591 809.581 245.016C809.581 244.442 808.923 243.977 808.111 243.977C807.299 243.977 806.641 244.442 806.641 245.016C806.641 245.591 807.299 246.056 808.111 246.056Z" fill="#3C3A40"/>
<path d="M865.833 246.056C866.645 246.056 867.303 245.591 867.303 245.016C867.303 244.442 866.645 243.977 865.833 243.977C865.022 243.977 864.364 244.442 864.364 245.016C864.364 245.591 865.022 246.056 865.833 246.056Z" fill="#3C3A40"/>
<path d="M923.556 246.056C924.367 246.056 925.025 245.591 925.025 245.016C925.025 244.442 924.367 243.977 923.556 243.977C922.744 243.977 922.086 244.442 922.086 245.016C922.086 245.591 922.744 246.056 923.556 246.056Z" fill="#3C3A40"/>
<path d="M981.278 246.056C982.089 246.056 982.747 245.591 982.747 245.016C982.747 244.442 982.089 243.977 981.278 243.977C980.466 243.977 979.808 244.442 979.808 245.016C979.808 245.591 980.466 246.056 981.278 246.056Z" fill="#3C3A40"/>
<path d="M1039 246.056C1039.81 246.056 1040.47 245.591 1040.47 245.016C1040.47 244.442 1039.81 243.977 1039 243.977C1038.19 243.977 1037.53 244.442 1037.53 245.016C1037.53 245.591 1038.19 246.056 1039 246.056Z" fill="#3C3A40"/>
<path d="M-8.85725e-05 286.892C0.81157 286.892 1.46955 286.427 1.46955 285.853C1.46955 285.278 0.81157 284.813 -8.85725e-05 284.813C-0.811747 284.813 -1.46973 285.278 -1.46973 285.853C-1.46973 286.427 -0.811747 286.892 -8.85725e-05 286.892Z" fill="#3C3A40"/>
<path d="M57.7221 286.892C58.5337 286.892 59.1917 286.427 59.1917 285.853C59.1917 285.278 58.5337 284.813 57.7221 284.813C56.9104 284.813 56.2524 285.278 56.2524 285.853C56.2524 286.427 56.9104 286.892 57.7221 286.892Z" fill="#3C3A40"/>
<path d="M115.444 286.892C116.256 286.892 116.914 286.427 116.914 285.853C116.914 285.278 116.256 284.813 115.444 284.813C114.633 284.813 113.975 285.278 113.975 285.853C113.975 286.427 114.633 286.892 115.444 286.892Z" fill="#3C3A40"/>
<path d="M173.167 286.892C173.978 286.892 174.636 286.427 174.636 285.853C174.636 285.278 173.978 284.813 173.167 284.813C172.355 284.813 171.697 285.278 171.697 285.853C171.697 286.427 172.355 286.892 173.167 286.892Z" fill="#3C3A40"/>
<path d="M230.889 286.892C231.7 286.892 232.358 286.427 232.358 285.853C232.358 285.278 231.7 284.813 230.889 284.813C230.077 284.813 229.419 285.278 229.419 285.853C229.419 286.427 230.077 286.892 230.889 286.892Z" fill="#3C3A40"/>
<path d="M288.611 286.892C289.423 286.892 290.081 286.427 290.081 285.853C290.081 285.278 289.423 284.813 288.611 284.813C287.799 284.813 287.141 285.278 287.141 285.853C287.141 286.427 287.799 286.892 288.611 286.892Z" fill="#3C3A40"/>
<path d="M346.333 286.892C347.145 286.892 347.803 286.427 347.803 285.853C347.803 285.278 347.145 284.813 346.333 284.813C345.522 284.813 344.864 285.278 344.864 285.853C344.864 286.427 345.522 286.892 346.333 286.892Z" fill="#3C3A40"/>
<path d="M404.056 286.892C404.867 286.892 405.525 286.427 405.525 285.853C405.525 285.278 404.867 284.813 404.056 284.813C403.244 284.813 402.586 285.278 402.586 285.853C402.586 286.427 403.244 286.892 404.056 286.892Z" fill="#3C3A40"/>
<path d="M461.778 286.892C462.589 286.892 463.247 286.427 463.247 285.853C463.247 285.278 462.589 284.813 461.778 284.813C460.966 284.813 460.308 285.278 460.308 285.853C460.308 286.427 460.966 286.892 461.778 286.892Z" fill="#3C3A40"/>
<path d="M519.5 286.892C520.312 286.892 520.97 286.427 520.97 285.853C520.97 285.278 520.312 284.813 519.5 284.813C518.688 284.813 518.03 285.278 518.03 285.853C518.03 286.427 518.688 286.892 519.5 286.892Z" fill="#3C3A40"/>
<path d="M577.222 286.892C578.034 286.892 578.692 286.427 578.692 285.853C578.692 285.278 578.034 284.813 577.222 284.813C576.41 284.813 575.752 285.278 575.752 285.853C575.752 286.427 576.41 286.892 577.222 286.892Z" fill="#3C3A40"/>
<path d="M634.944 286.892C635.756 286.892 636.414 286.427 636.414 285.853C636.414 285.278 635.756 284.813 634.944 284.813C634.133 284.813 633.475 285.278 633.475 285.853C633.475 286.427 634.133 286.892 634.944 286.892Z" fill="#3C3A40"/>
<path d="M692.667 286.892C693.478 286.892 694.136 286.427 694.136 285.853C694.136 285.278 693.478 284.813 692.667 284.813C691.855 284.813 691.197 285.278 691.197 285.853C691.197 286.427 691.855 286.892 692.667 286.892Z" fill="#3C3A40"/>
<path d="M750.389 286.892C751.201 286.892 751.858 286.427 751.858 285.853C751.858 285.278 751.201 284.813 750.389 284.813C749.577 284.813 748.919 285.278 748.919 285.853C748.919 286.427 749.577 286.892 750.389 286.892Z" fill="#3C3A40"/>
<path d="M808.111 286.892C808.923 286.892 809.581 286.427 809.581 285.853C809.581 285.278 808.923 284.813 808.111 284.813C807.299 284.813 806.641 285.278 806.641 285.853C806.641 286.427 807.299 286.892 808.111 286.892Z" fill="#3C3A40"/>
<path d="M865.833 286.892C866.645 286.892 867.303 286.427 867.303 285.853C867.303 285.278 866.645 284.813 865.833 284.813C865.022 284.813 864.364 285.278 864.364 285.853C864.364 286.427 865.022 286.892 865.833 286.892Z" fill="#3C3A40"/>
<path d="M923.556 286.892C924.367 286.892 925.025 286.427 925.025 285.853C925.025 285.278 924.367 284.813 923.556 284.813C922.744 284.813 922.086 285.278 922.086 285.853C922.086 286.427 922.744 286.892 923.556 286.892Z" fill="#3C3A40"/>
<path d="M981.278 286.892C982.089 286.892 982.747 286.427 982.747 285.853C982.747 285.278 982.089 284.813 981.278 284.813C980.466 284.813 979.808 285.278 979.808 285.853C979.808 286.427 980.466 286.892 981.278 286.892Z" fill="#3C3A40"/>
<path d="M1039 286.892C1039.81 286.892 1040.47 286.427 1040.47 285.853C1040.47 285.278 1039.81 284.813 1039 284.813C1038.19 284.813 1037.53 285.278 1037.53 285.853C1037.53 286.427 1038.19 286.892 1039 286.892Z" fill="#3C3A40"/>
<path d="M-8.85725e-05 327.728C0.81157 327.728 1.46955 327.263 1.46955 326.689C1.46955 326.114 0.81157 325.649 -8.85725e-05 325.649C-0.811747 325.649 -1.46973 326.114 -1.46973 326.689C-1.46973 327.263 -0.811747 327.728 -8.85725e-05 327.728Z" fill="#3C3A40"/>
<path d="M57.7221 327.728C58.5337 327.728 59.1917 327.263 59.1917 326.689C59.1917 326.114 58.5337 325.649 57.7221 325.649C56.9104 325.649 56.2524 326.114 56.2524 326.689C56.2524 327.263 56.9104 327.728 57.7221 327.728Z" fill="#3C3A40"/>
<path d="M115.444 327.728C116.256 327.728 116.914 327.263 116.914 326.689C116.914 326.114 116.256 325.649 115.444 325.649C114.633 325.649 113.975 326.114 113.975 326.689C113.975 327.263 114.633 327.728 115.444 327.728Z" fill="#3C3A40"/>
<path d="M173.167 327.728C173.978 327.728 174.636 327.263 174.636 326.689C174.636 326.114 173.978 325.649 173.167 325.649C172.355 325.649 171.697 326.114 171.697 326.689C171.697 327.263 172.355 327.728 173.167 327.728Z" fill="#3C3A40"/>
<path d="M230.889 327.728C231.7 327.728 232.358 327.263 232.358 326.689C232.358 326.114 231.7 325.649 230.889 325.649C230.077 325.649 229.419 326.114 229.419 326.689C229.419 327.263 230.077 327.728 230.889 327.728Z" fill="#3C3A40"/>
<path d="M288.611 327.728C289.423 327.728 290.081 327.263 290.081 326.689C290.081 326.114 289.423 325.649 288.611 325.649C287.799 325.649 287.141 326.114 287.141 326.689C287.141 327.263 287.799 327.728 288.611 327.728Z" fill="#3C3A40"/>
<path d="M346.333 327.728C347.145 327.728 347.803 327.263 347.803 326.689C347.803 326.114 347.145 325.649 346.333 325.649C345.522 325.649 344.864 326.114 344.864 326.689C344.864 327.263 345.522 327.728 346.333 327.728Z" fill="#3C3A40"/>
<path d="M404.056 327.728C404.867 327.728 405.525 327.263 405.525 326.689C405.525 326.114 404.867 325.649 404.056 325.649C403.244 325.649 402.586 326.114 402.586 326.689C402.586 327.263 403.244 327.728 404.056 327.728Z" fill="#3C3A40"/>
<path d="M461.778 327.728C462.589 327.728 463.247 327.263 463.247 326.689C463.247 326.114 462.589 325.649 461.778 325.649C460.966 325.649 460.308 326.114 460.308 326.689C460.308 327.263 460.966 327.728 461.778 327.728Z" fill="#3C3A40"/>
<path d="M519.5 327.728C520.312 327.728 520.97 327.263 520.97 326.689C520.97 326.114 520.312 325.649 519.5 325.649C518.688 325.649 518.03 326.114 518.03 326.689C518.03 327.263 518.688 327.728 519.5 327.728Z" fill="#3C3A40"/>
<path d="M577.222 327.728C578.034 327.728 578.692 327.263 578.692 326.689C578.692 326.114 578.034 325.649 577.222 325.649C576.41 325.649 575.752 326.114 575.752 326.689C575.752 327.263 576.41 327.728 577.222 327.728Z" fill="#3C3A40"/>
<path d="M634.944 327.728C635.756 327.728 636.414 327.263 636.414 326.689C636.414 326.114 635.756 325.649 634.944 325.649C634.133 325.649 633.475 326.114 633.475 326.689C633.475 327.263 634.133 327.728 634.944 327.728Z" fill="#3C3A40"/>
<path d="M692.667 327.728C693.478 327.728 694.136 327.263 694.136 326.689C694.136 326.114 693.478 325.649 692.667 325.649C691.855 325.649 691.197 326.114 691.197 326.689C691.197 327.263 691.855 327.728 692.667 327.728Z" fill="#3C3A40"/>
<path d="M750.389 327.728C751.201 327.728 751.858 327.263 751.858 326.689C751.858 326.114 751.201 325.649 750.389 325.649C749.577 325.649 748.919 326.114 748.919 326.689C748.919 327.263 749.577 327.728 750.389 327.728Z" fill="#3C3A40"/>
<path d="M808.111 327.728C808.923 327.728 809.581 327.263 809.581 326.689C809.581 326.114 808.923 325.649 808.111 325.649C807.299 325.649 806.641 326.114 806.641 326.689C806.641 327.263 807.299 327.728 808.111 327.728Z" fill="#3C3A40"/>
<path d="M865.833 327.728C866.645 327.728 867.303 327.263 867.303 326.689C867.303 326.114 866.645 325.649 865.833 325.649C865.022 325.649 864.364 326.114 864.364 326.689C864.364 327.263 865.022 327.728 865.833 327.728Z" fill="#3C3A40"/>
<path d="M923.556 327.728C924.367 327.728 925.025 327.263 925.025 326.689C925.025 326.114 924.367 325.649 923.556 325.649C922.744 325.649 922.086 326.114 922.086 326.689C922.086 327.263 922.744 327.728 923.556 327.728Z" fill="#3C3A40"/>
<path d="M981.278 327.728C982.089 327.728 982.747 327.263 982.747 326.689C982.747 326.114 982.089 325.649 981.278 325.649C980.466 325.649 979.808 326.114 979.808 326.689C979.808 327.263 980.466 327.728 981.278 327.728Z" fill="#3C3A40"/>
<path d="M1039 327.728C1039.81 327.728 1040.47 327.263 1040.47 326.689C1040.47 326.114 1039.81 325.649 1039 325.649C1038.19 325.649 1037.53 326.114 1037.53 326.689C1037.53 327.263 1038.19 327.728 1039 327.728Z" fill="#3C3A40"/>
<path d="M-8.85725e-05 368.565C0.81157 368.565 1.46955 368.099 1.46955 367.525C1.46955 366.951 0.81157 366.485 -8.85725e-05 366.485C-0.811747 366.485 -1.46973 366.951 -1.46973 367.525C-1.46973 368.099 -0.811747 368.565 -8.85725e-05 368.565Z" fill="#3C3A40"/>
<path d="M57.7221 368.565C58.5337 368.565 59.1917 368.099 59.1917 367.525C59.1917 366.951 58.5337 366.485 57.7221 366.485C56.9104 366.485 56.2524 366.951 56.2524 367.525C56.2524 368.099 56.9104 368.565 57.7221 368.565Z" fill="#3C3A40"/>
<path d="M115.444 368.565C116.256 368.565 116.914 368.099 116.914 367.525C116.914 366.951 116.256 366.485 115.444 366.485C114.633 366.485 113.975 366.951 113.975 367.525C113.975 368.099 114.633 368.565 115.444 368.565Z" fill="#3C3A40"/>
<path d="M173.167 368.565C173.978 368.565 174.636 368.099 174.636 367.525C174.636 366.951 173.978 366.485 173.167 366.485C172.355 366.485 171.697 366.951 171.697 367.525C171.697 368.099 172.355 368.565 173.167 368.565Z" fill="#3C3A40"/>
<path d="M230.889 368.565C231.7 368.565 232.358 368.099 232.358 367.525C232.358 366.951 231.7 366.485 230.889 366.485C230.077 366.485 229.419 366.951 229.419 367.525C229.419 368.099 230.077 368.565 230.889 368.565Z" fill="#3C3A40"/>
<path d="M288.611 368.565C289.423 368.565 290.081 368.099 290.081 367.525C290.081 366.951 289.423 366.485 288.611 366.485C287.799 366.485 287.141 366.951 287.141 367.525C287.141 368.099 287.799 368.565 288.611 368.565Z" fill="#3C3A40"/>
<path d="M346.333 368.565C347.145 368.565 347.803 368.099 347.803 367.525C347.803 366.951 347.145 366.485 346.333 366.485C345.522 366.485 344.864 366.951 344.864 367.525C344.864 368.099 345.522 368.565 346.333 368.565Z" fill="#3C3A40"/>
<path d="M404.056 368.565C404.867 368.565 405.525 368.099 405.525 367.525C405.525 366.951 404.867 366.485 404.056 366.485C403.244 366.485 402.586 366.951 402.586 367.525C402.586 368.099 403.244 368.565 404.056 368.565Z" fill="#3C3A40"/>
<path d="M461.778 368.565C462.589 368.565 463.247 368.099 463.247 367.525C463.247 366.951 462.589 366.485 461.778 366.485C460.966 366.485 460.308 366.951 460.308 367.525C460.308 368.099 460.966 368.565 461.778 368.565Z" fill="#3C3A40"/>
<path d="M519.5 368.565C520.312 368.565 520.97 368.099 520.97 367.525C520.97 366.951 520.312 366.485 519.5 366.485C518.688 366.485 518.03 366.951 518.03 367.525C518.03 368.099 518.688 368.565 519.5 368.565Z" fill="#3C3A40"/>
<path d="M577.222 368.565C578.034 368.565 578.692 368.099 578.692 367.525C578.692 366.951 578.034 366.485 577.222 366.485C576.41 366.485 575.752 366.951 575.752 367.525C575.752 368.099 576.41 368.565 577.222 368.565Z" fill="#3C3A40"/>
<path d="M634.944 368.565C635.756 368.565 636.414 368.099 636.414 367.525C636.414 366.951 635.756 366.485 634.944 366.485C634.133 366.485 633.475 366.951 633.475 367.525C633.475 368.099 634.133 368.565 634.944 368.565Z" fill="#3C3A40"/>
<path d="M692.667 368.565C693.478 368.565 694.136 368.099 694.136 367.525C694.136 366.951 693.478 366.485 692.667 366.485C691.855 366.485 691.197 366.951 691.197 367.525C691.197 368.099 691.855 368.565 692.667 368.565Z" fill="#3C3A40"/>
<path d="M750.389 368.565C751.201 368.565 751.858 368.099 751.858 367.525C751.858 366.951 751.201 366.485 750.389 366.485C749.577 366.485 748.919 366.951 748.919 367.525C748.919 368.099 749.577 368.565 750.389 368.565Z" fill="#3C3A40"/>
<path d="M808.111 368.565C808.923 368.565 809.581 368.099 809.581 367.525C809.581 366.951 808.923 366.485 808.111 366.485C807.299 366.485 806.641 366.951 806.641 367.525C806.641 368.099 807.299 368.565 808.111 368.565Z" fill="#3C3A40"/>
<path d="M865.833 368.565C866.645 368.565 867.303 368.099 867.303 367.525C867.303 366.951 866.645 366.485 865.833 366.485C865.022 366.485 864.364 366.951 864.364 367.525C864.364 368.099 865.022 368.565 865.833 368.565Z" fill="#3C3A40"/>
<path d="M923.556 368.565C924.367 368.565 925.025 368.099 925.025 367.525C925.025 366.951 924.367 366.485 923.556 366.485C922.744 366.485 922.086 366.951 922.086 367.525C922.086 368.099 922.744 368.565 923.556 368.565Z" fill="#3C3A40"/>
<path d="M981.278 368.565C982.089 368.565 982.747 368.099 982.747 367.525C982.747 366.951 982.089 366.485 981.278 366.485C980.466 366.485 979.808 366.951 979.808 367.525C979.808 368.099 980.466 368.565 981.278 368.565Z" fill="#3C3A40"/>
<path d="M1039 368.565C1039.81 368.565 1040.47 368.099 1040.47 367.525C1040.47 366.951 1039.81 366.485 1039 366.485C1038.19 366.485 1037.53 366.951 1037.53 367.525C1037.53 368.099 1038.19 368.565 1039 368.565Z" fill="#3C3A40"/>
<path d="M-8.85725e-05 409.4C0.81157 409.4 1.46955 408.935 1.46955 408.361C1.46955 407.787 0.81157 407.321 -8.85725e-05 407.321C-0.811747 407.321 -1.46973 407.787 -1.46973 408.361C-1.46973 408.935 -0.811747 409.4 -8.85725e-05 409.4Z" fill="#3C3A40"/>
<path d="M57.7221 409.4C58.5337 409.4 59.1917 408.935 59.1917 408.361C59.1917 407.787 58.5337 407.321 57.7221 407.321C56.9104 407.321 56.2524 407.787 56.2524 408.361C56.2524 408.935 56.9104 409.4 57.7221 409.4Z" fill="#3C3A40"/>
<path d="M115.444 409.4C116.256 409.4 116.914 408.935 116.914 408.361C116.914 407.787 116.256 407.321 115.444 407.321C114.633 407.321 113.975 407.787 113.975 408.361C113.975 408.935 114.633 409.4 115.444 409.4Z" fill="#3C3A40"/>
<path d="M173.167 409.4C173.978 409.4 174.636 408.935 174.636 408.361C174.636 407.787 173.978 407.321 173.167 407.321C172.355 407.321 171.697 407.787 171.697 408.361C171.697 408.935 172.355 409.4 173.167 409.4Z" fill="#3C3A40"/>
<path d="M230.889 409.4C231.7 409.4 232.358 408.935 232.358 408.361C232.358 407.787 231.7 407.321 230.889 407.321C230.077 407.321 229.419 407.787 229.419 408.361C229.419 408.935 230.077 409.4 230.889 409.4Z" fill="#3C3A40"/>
<path d="M288.611 409.4C289.423 409.4 290.081 408.935 290.081 408.361C290.081 407.787 289.423 407.321 288.611 407.321C287.799 407.321 287.141 407.787 287.141 408.361C287.141 408.935 287.799 409.4 288.611 409.4Z" fill="#3C3A40"/>
<path d="M346.333 409.4C347.145 409.4 347.803 408.935 347.803 408.361C347.803 407.787 347.145 407.321 346.333 407.321C345.522 407.321 344.864 407.787 344.864 408.361C344.864 408.935 345.522 409.4 346.333 409.4Z" fill="#3C3A40"/>
<path d="M404.056 409.4C404.867 409.4 405.525 408.935 405.525 408.361C405.525 407.787 404.867 407.321 404.056 407.321C403.244 407.321 402.586 407.787 402.586 408.361C402.586 408.935 403.244 409.4 404.056 409.4Z" fill="#3C3A40"/>
<path d="M461.778 409.4C462.589 409.4 463.247 408.935 463.247 408.361C463.247 407.787 462.589 407.321 461.778 407.321C460.966 407.321 460.308 407.787 460.308 408.361C460.308 408.935 460.966 409.4 461.778 409.4Z" fill="#3C3A40"/>
<path d="M519.5 409.4C520.312 409.4 520.97 408.935 520.97 408.361C520.97 407.787 520.312 407.321 519.5 407.321C518.688 407.321 518.03 407.787 518.03 408.361C518.03 408.935 518.688 409.4 519.5 409.4Z" fill="#3C3A40"/>
<path d="M577.222 409.4C578.034 409.4 578.692 408.935 578.692 408.361C578.692 407.787 578.034 407.321 577.222 407.321C576.41 407.321 575.752 407.787 575.752 408.361C575.752 408.935 576.41 409.4 577.222 409.4Z" fill="#3C3A40"/>
<path d="M634.944 409.4C635.756 409.4 636.414 408.935 636.414 408.361C636.414 407.787 635.756 407.321 634.944 407.321C634.133 407.321 633.475 407.787 633.475 408.361C633.475 408.935 634.133 409.4 634.944 409.4Z" fill="#3C3A40"/>
<path d="M692.667 409.4C693.478 409.4 694.136 408.935 694.136 408.361C694.136 407.787 693.478 407.321 692.667 407.321C691.855 407.321 691.197 407.787 691.197 408.361C691.197 408.935 691.855 409.4 692.667 409.4Z" fill="#3C3A40"/>
<path d="M750.389 409.4C751.201 409.4 751.858 408.935 751.858 408.361C751.858 407.787 751.201 407.321 750.389 407.321C749.577 407.321 748.919 407.787 748.919 408.361C748.919 408.935 749.577 409.4 750.389 409.4Z" fill="#3C3A40"/>
<path d="M808.111 409.4C808.923 409.4 809.581 408.935 809.581 408.361C809.581 407.787 808.923 407.321 808.111 407.321C807.299 407.321 806.641 407.787 806.641 408.361C806.641 408.935 807.299 409.4 808.111 409.4Z" fill="#3C3A40"/>
<path d="M865.833 409.4C866.645 409.4 867.303 408.935 867.303 408.361C867.303 407.787 866.645 407.321 865.833 407.321C865.022 407.321 864.364 407.787 864.364 408.361C864.364 408.935 865.022 409.4 865.833 409.4Z" fill="#3C3A40"/>
<path d="M923.556 409.4C924.367 409.4 925.025 408.935 925.025 408.361C925.025 407.787 924.367 407.321 923.556 407.321C922.744 407.321 922.086 407.787 922.086 408.361C922.086 408.935 922.744 409.4 923.556 409.4Z" fill="#3C3A40"/>
<path d="M981.278 409.4C982.089 409.4 982.747 408.935 982.747 408.361C982.747 407.787 982.089 407.321 981.278 407.321C980.466 407.321 979.808 407.787 979.808 408.361C979.808 408.935 980.466 409.4 981.278 409.4Z" fill="#3C3A40"/>
<path d="M1039 409.4C1039.81 409.4 1040.47 408.935 1040.47 408.361C1040.47 407.787 1039.81 407.321 1039 407.321C1038.19 407.321 1037.53 407.787 1037.53 408.361C1037.53 408.935 1038.19 409.4 1039 409.4Z" fill="#3C3A40"/>
<path d="M-8.85725e-05 450.237C0.81157 450.237 1.46955 449.771 1.46955 449.197C1.46955 448.623 0.81157 448.157 -8.85725e-05 448.157C-0.811747 448.157 -1.46973 448.623 -1.46973 449.197C-1.46973 449.771 -0.811747 450.237 -8.85725e-05 450.237Z" fill="#3C3A40"/>
<path d="M57.7221 450.237C58.5337 450.237 59.1917 449.771 59.1917 449.197C59.1917 448.623 58.5337 448.157 57.7221 448.157C56.9104 448.157 56.2524 448.623 56.2524 449.197C56.2524 449.771 56.9104 450.237 57.7221 450.237Z" fill="#3C3A40"/>
<path d="M115.444 450.237C116.256 450.237 116.914 449.771 116.914 449.197C116.914 448.623 116.256 448.157 115.444 448.157C114.633 448.157 113.975 448.623 113.975 449.197C113.975 449.771 114.633 450.237 115.444 450.237Z" fill="#3C3A40"/>
<path d="M173.167 450.237C173.978 450.237 174.636 449.771 174.636 449.197C174.636 448.623 173.978 448.157 173.167 448.157C172.355 448.157 171.697 448.623 171.697 449.197C171.697 449.771 172.355 450.237 173.167 450.237Z" fill="#3C3A40"/>
<path d="M230.889 450.237C231.7 450.237 232.358 449.771 232.358 449.197C232.358 448.623 231.7 448.157 230.889 448.157C230.077 448.157 229.419 448.623 229.419 449.197C229.419 449.771 230.077 450.237 230.889 450.237Z" fill="#3C3A40"/>
<path d="M288.611 450.237C289.423 450.237 290.081 449.771 290.081 449.197C290.081 448.623 289.423 448.157 288.611 448.157C287.799 448.157 287.141 448.623 287.141 449.197C287.141 449.771 287.799 450.237 288.611 450.237Z" fill="#3C3A40"/>
<path d="M346.333 450.237C347.145 450.237 347.803 449.771 347.803 449.197C347.803 448.623 347.145 448.157 346.333 448.157C345.522 448.157 344.864 448.623 344.864 449.197C344.864 449.771 345.522 450.237 346.333 450.237Z" fill="#3C3A40"/>
<path d="M404.056 450.237C404.867 450.237 405.525 449.771 405.525 449.197C405.525 448.623 404.867 448.157 404.056 448.157C403.244 448.157 402.586 448.623 402.586 449.197C402.586 449.771 403.244 450.237 404.056 450.237Z" fill="#3C3A40"/>
<path d="M461.778 450.237C462.589 450.237 463.247 449.771 463.247 449.197C463.247 448.623 462.589 448.157 461.778 448.157C460.966 448.157 460.308 448.623 460.308 449.197C460.308 449.771 460.966 450.237 461.778 450.237Z" fill="#3C3A40"/>
<path d="M519.5 450.237C520.312 450.237 520.97 449.771 520.97 449.197C520.97 448.623 520.312 448.157 519.5 448.157C518.688 448.157 518.03 448.623 518.03 449.197C518.03 449.771 518.688 450.237 519.5 450.237Z" fill="#3C3A40"/>
<path d="M577.222 450.237C578.034 450.237 578.692 449.771 578.692 449.197C578.692 448.623 578.034 448.157 577.222 448.157C576.41 448.157 575.752 448.623 575.752 449.197C575.752 449.771 576.41 450.237 577.222 450.237Z" fill="#3C3A40"/>
<path d="M634.944 450.237C635.756 450.237 636.414 449.771 636.414 449.197C636.414 448.623 635.756 448.157 634.944 448.157C634.133 448.157 633.475 448.623 633.475 449.197C633.475 449.771 634.133 450.237 634.944 450.237Z" fill="#3C3A40"/>
<path d="M692.667 450.237C693.478 450.237 694.136 449.771 694.136 449.197C694.136 448.623 693.478 448.157 692.667 448.157C691.855 448.157 691.197 448.623 691.197 449.197C691.197 449.771 691.855 450.237 692.667 450.237Z" fill="#3C3A40"/>
<path d="M750.389 450.237C751.201 450.237 751.858 449.771 751.858 449.197C751.858 448.623 751.201 448.157 750.389 448.157C749.577 448.157 748.919 448.623 748.919 449.197C748.919 449.771 749.577 450.237 750.389 450.237Z" fill="#3C3A40"/>
<path d="M808.111 450.237C808.923 450.237 809.581 449.771 809.581 449.197C809.581 448.623 808.923 448.157 808.111 448.157C807.299 448.157 806.641 448.623 806.641 449.197C806.641 449.771 807.299 450.237 808.111 450.237Z" fill="#3C3A40"/>
<path d="M865.833 450.237C866.645 450.237 867.303 449.771 867.303 449.197C867.303 448.623 866.645 448.157 865.833 448.157C865.022 448.157 864.364 448.623 864.364 449.197C864.364 449.771 865.022 450.237 865.833 450.237Z" fill="#3C3A40"/>
<path d="M923.556 450.237C924.367 450.237 925.025 449.771 925.025 449.197C925.025 448.623 924.367 448.157 923.556 448.157C922.744 448.157 922.086 448.623 922.086 449.197C922.086 449.771 922.744 450.237 923.556 450.237Z" fill="#3C3A40"/>
<path d="M981.278 450.237C982.089 450.237 982.747 449.771 982.747 449.197C982.747 448.623 982.089 448.157 981.278 448.157C980.466 448.157 979.808 448.623 979.808 449.197C979.808 449.771 980.466 450.237 981.278 450.237Z" fill="#3C3A40"/>
<path d="M1039 450.237C1039.81 450.237 1040.47 449.771 1040.47 449.197C1040.47 448.623 1039.81 448.157 1039 448.157C1038.19 448.157 1037.53 448.623 1037.53 449.197C1037.53 449.771 1038.19 450.237 1039 450.237Z" fill="#3C3A40"/>
<path d="M-8.85725e-05 491.073C0.81157 491.073 1.46955 490.607 1.46955 490.033C1.46955 489.459 0.81157 488.993 -8.85725e-05 488.993C-0.811747 488.993 -1.46973 489.459 -1.46973 490.033C-1.46973 490.607 -0.811747 491.073 -8.85725e-05 491.073Z" fill="#3C3A40"/>
<path d="M57.7221 491.073C58.5337 491.073 59.1917 490.607 59.1917 490.033C59.1917 489.459 58.5337 488.993 57.7221 488.993C56.9104 488.993 56.2524 489.459 56.2524 490.033C56.2524 490.607 56.9104 491.073 57.7221 491.073Z" fill="#3C3A40"/>
<path d="M115.444 491.073C116.256 491.073 116.914 490.607 116.914 490.033C116.914 489.459 116.256 488.993 115.444 488.993C114.633 488.993 113.975 489.459 113.975 490.033C113.975 490.607 114.633 491.073 115.444 491.073Z" fill="#3C3A40"/>
<path d="M173.167 491.073C173.978 491.073 174.636 490.607 174.636 490.033C174.636 489.459 173.978 488.993 173.167 488.993C172.355 488.993 171.697 489.459 171.697 490.033C171.697 490.607 172.355 491.073 173.167 491.073Z" fill="#3C3A40"/>
<path d="M230.889 491.073C231.7 491.073 232.358 490.607 232.358 490.033C232.358 489.459 231.7 488.993 230.889 488.993C230.077 488.993 229.419 489.459 229.419 490.033C229.419 490.607 230.077 491.073 230.889 491.073Z" fill="#3C3A40"/>
<path d="M288.611 491.073C289.423 491.073 290.081 490.607 290.081 490.033C290.081 489.459 289.423 488.993 288.611 488.993C287.799 488.993 287.141 489.459 287.141 490.033C287.141 490.607 287.799 491.073 288.611 491.073Z" fill="#3C3A40"/>
<path d="M346.333 491.073C347.145 491.073 347.803 490.607 347.803 490.033C347.803 489.459 347.145 488.993 346.333 488.993C345.522 488.993 344.864 489.459 344.864 490.033C344.864 490.607 345.522 491.073 346.333 491.073Z" fill="#3C3A40"/>
<path d="M404.056 491.073C404.867 491.073 405.525 490.607 405.525 490.033C405.525 489.459 404.867 488.993 404.056 488.993C403.244 488.993 402.586 489.459 402.586 490.033C402.586 490.607 403.244 491.073 404.056 491.073Z" fill="#3C3A40"/>
<path d="M461.778 491.073C462.589 491.073 463.247 490.607 463.247 490.033C463.247 489.459 462.589 488.993 461.778 488.993C460.966 488.993 460.308 489.459 460.308 490.033C460.308 490.607 460.966 491.073 461.778 491.073Z" fill="#3C3A40"/>
<path d="M519.5 491.073C520.312 491.073 520.97 490.607 520.97 490.033C520.97 489.459 520.312 488.993 519.5 488.993C518.688 488.993 518.03 489.459 518.03 490.033C518.03 490.607 518.688 491.073 519.5 491.073Z" fill="#3C3A40"/>
<path d="M577.222 491.073C578.034 491.073 578.692 490.607 578.692 490.033C578.692 489.459 578.034 488.993 577.222 488.993C576.41 488.993 575.752 489.459 575.752 490.033C575.752 490.607 576.41 491.073 577.222 491.073Z" fill="#3C3A40"/>
<path d="M634.944 491.073C635.756 491.073 636.414 490.607 636.414 490.033C636.414 489.459 635.756 488.993 634.944 488.993C634.133 488.993 633.475 489.459 633.475 490.033C633.475 490.607 634.133 491.073 634.944 491.073Z" fill="#3C3A40"/>
<path d="M692.667 491.073C693.478 491.073 694.136 490.607 694.136 490.033C694.136 489.459 693.478 488.993 692.667 488.993C691.855 488.993 691.197 489.459 691.197 490.033C691.197 490.607 691.855 491.073 692.667 491.073Z" fill="#3C3A40"/>
<path d="M750.389 491.073C751.201 491.073 751.858 490.607 751.858 490.033C751.858 489.459 751.201 488.993 750.389 488.993C749.577 488.993 748.919 489.459 748.919 490.033C748.919 490.607 749.577 491.073 750.389 491.073Z" fill="#3C3A40"/>
<path d="M808.111 491.073C808.923 491.073 809.581 490.607 809.581 490.033C809.581 489.459 808.923 488.993 808.111 488.993C807.299 488.993 806.641 489.459 806.641 490.033C806.641 490.607 807.299 491.073 808.111 491.073Z" fill="#3C3A40"/>
<path d="M865.833 491.073C866.645 491.073 867.303 490.607 867.303 490.033C867.303 489.459 866.645 488.993 865.833 488.993C865.022 488.993 864.364 489.459 864.364 490.033C864.364 490.607 865.022 491.073 865.833 491.073Z" fill="#3C3A40"/>
<path d="M923.556 491.073C924.367 491.073 925.025 490.607 925.025 490.033C925.025 489.459 924.367 488.993 923.556 488.993C922.744 488.993 922.086 489.459 922.086 490.033C922.086 490.607 922.744 491.073 923.556 491.073Z" fill="#3C3A40"/>
<path d="M981.278 491.073C982.089 491.073 982.747 490.607 982.747 490.033C982.747 489.459 982.089 488.993 981.278 488.993C980.466 488.993 979.808 489.459 979.808 490.033C979.808 490.607 980.466 491.073 981.278 491.073Z" fill="#3C3A40"/>
<path d="M1039 491.073C1039.81 491.073 1040.47 490.607 1040.47 490.033C1040.47 489.459 1039.81 488.993 1039 488.993C1038.19 488.993 1037.53 489.459 1037.53 490.033C1037.53 490.607 1038.19 491.073 1039 491.073Z" fill="#3C3A40"/>
<path d="M-8.85725e-05 531.909C0.81157 531.909 1.46955 531.443 1.46955 530.869C1.46955 530.295 0.81157 529.829 -8.85725e-05 529.829C-0.811747 529.829 -1.46973 530.295 -1.46973 530.869C-1.46973 531.443 -0.811747 531.909 -8.85725e-05 531.909Z" fill="#3C3A40"/>
<path d="M57.7221 531.909C58.5337 531.909 59.1917 531.443 59.1917 530.869C59.1917 530.295 58.5337 529.829 57.7221 529.829C56.9104 529.829 56.2524 530.295 56.2524 530.869C56.2524 531.443 56.9104 531.909 57.7221 531.909Z" fill="#3C3A40"/>
<path d="M115.444 531.909C116.256 531.909 116.914 531.443 116.914 530.869C116.914 530.295 116.256 529.829 115.444 529.829C114.633 529.829 113.975 530.295 113.975 530.869C113.975 531.443 114.633 531.909 115.444 531.909Z" fill="#3C3A40"/>
<path d="M173.167 531.909C173.978 531.909 174.636 531.443 174.636 530.869C174.636 530.295 173.978 529.829 173.167 529.829C172.355 529.829 171.697 530.295 171.697 530.869C171.697 531.443 172.355 531.909 173.167 531.909Z" fill="#3C3A40"/>
<path d="M230.889 531.909C231.7 531.909 232.358 531.443 232.358 530.869C232.358 530.295 231.7 529.829 230.889 529.829C230.077 529.829 229.419 530.295 229.419 530.869C229.419 531.443 230.077 531.909 230.889 531.909Z" fill="#3C3A40"/>
<path d="M288.611 531.909C289.423 531.909 290.081 531.443 290.081 530.869C290.081 530.295 289.423 529.829 288.611 529.829C287.799 529.829 287.141 530.295 287.141 530.869C287.141 531.443 287.799 531.909 288.611 531.909Z" fill="#3C3A40"/>
<path d="M346.333 531.909C347.145 531.909 347.803 531.443 347.803 530.869C347.803 530.295 347.145 529.829 346.333 529.829C345.522 529.829 344.864 530.295 344.864 530.869C344.864 531.443 345.522 531.909 346.333 531.909Z" fill="#3C3A40"/>
<path d="M404.056 531.909C404.867 531.909 405.525 531.443 405.525 530.869C405.525 530.295 404.867 529.829 404.056 529.829C403.244 529.829 402.586 530.295 402.586 530.869C402.586 531.443 403.244 531.909 404.056 531.909Z" fill="#3C3A40"/>
<path d="M461.778 531.909C462.589 531.909 463.247 531.443 463.247 530.869C463.247 530.295 462.589 529.829 461.778 529.829C460.966 529.829 460.308 530.295 460.308 530.869C460.308 531.443 460.966 531.909 461.778 531.909Z" fill="#3C3A40"/>
<path d="M519.5 531.909C520.312 531.909 520.97 531.443 520.97 530.869C520.97 530.295 520.312 529.829 519.5 529.829C518.688 529.829 518.03 530.295 518.03 530.869C518.03 531.443 518.688 531.909 519.5 531.909Z" fill="#3C3A40"/>
<path d="M577.222 531.909C578.034 531.909 578.692 531.443 578.692 530.869C578.692 530.295 578.034 529.829 577.222 529.829C576.41 529.829 575.752 530.295 575.752 530.869C575.752 531.443 576.41 531.909 577.222 531.909Z" fill="#3C3A40"/>
<path d="M634.944 531.909C635.756 531.909 636.414 531.443 636.414 530.869C636.414 530.295 635.756 529.829 634.944 529.829C634.133 529.829 633.475 530.295 633.475 530.869C633.475 531.443 634.133 531.909 634.944 531.909Z" fill="#3C3A40"/>
<path d="M692.667 531.909C693.478 531.909 694.136 531.443 694.136 530.869C694.136 530.295 693.478 529.829 692.667 529.829C691.855 529.829 691.197 530.295 691.197 530.869C691.197 531.443 691.855 531.909 692.667 531.909Z" fill="#3C3A40"/>
<path d="M750.389 531.909C751.201 531.909 751.858 531.443 751.858 530.869C751.858 530.295 751.201 529.829 750.389 529.829C749.577 529.829 748.919 530.295 748.919 530.869C748.919 531.443 749.577 531.909 750.389 531.909Z" fill="#3C3A40"/>
<path d="M808.111 531.909C808.923 531.909 809.581 531.443 809.581 530.869C809.581 530.295 808.923 529.829 808.111 529.829C807.299 529.829 806.641 530.295 806.641 530.869C806.641 531.443 807.299 531.909 808.111 531.909Z" fill="#3C3A40"/>
<path d="M865.833 531.909C866.645 531.909 867.303 531.443 867.303 530.869C867.303 530.295 866.645 529.829 865.833 529.829C865.022 529.829 864.364 530.295 864.364 530.869C864.364 531.443 865.022 531.909 865.833 531.909Z" fill="#3C3A40"/>
<path d="M923.556 531.909C924.367 531.909 925.025 531.443 925.025 530.869C925.025 530.295 924.367 529.829 923.556 529.829C922.744 529.829 922.086 530.295 922.086 530.869C922.086 531.443 922.744 531.909 923.556 531.909Z" fill="#3C3A40"/>
<path d="M981.278 531.909C982.089 531.909 982.747 531.443 982.747 530.869C982.747 530.295 982.089 529.829 981.278 529.829C980.466 529.829 979.808 530.295 979.808 530.869C979.808 531.443 980.466 531.909 981.278 531.909Z" fill="#3C3A40"/>
<path d="M1039 531.909C1039.81 531.909 1040.47 531.443 1040.47 530.869C1040.47 530.295 1039.81 529.829 1039 529.829C1038.19 529.829 1037.53 530.295 1037.53 530.869C1037.53 531.443 1038.19 531.909 1039 531.909Z" fill="#3C3A40"/>
<path d="M-8.85725e-05 572.745C0.81157 572.745 1.46955 572.279 1.46955 571.705C1.46955 571.131 0.81157 570.666 -8.85725e-05 570.666C-0.811747 570.666 -1.46973 571.131 -1.46973 571.705C-1.46973 572.279 -0.811747 572.745 -8.85725e-05 572.745Z" fill="#3C3A40"/>
<path d="M57.7221 572.745C58.5337 572.745 59.1917 572.279 59.1917 571.705C59.1917 571.131 58.5337 570.666 57.7221 570.666C56.9104 570.666 56.2524 571.131 56.2524 571.705C56.2524 572.279 56.9104 572.745 57.7221 572.745Z" fill="#3C3A40"/>
<path d="M115.444 572.745C116.256 572.745 116.914 572.279 116.914 571.705C116.914 571.131 116.256 570.666 115.444 570.666C114.633 570.666 113.975 571.131 113.975 571.705C113.975 572.279 114.633 572.745 115.444 572.745Z" fill="#3C3A40"/>
<path d="M173.167 572.745C173.978 572.745 174.636 572.279 174.636 571.705C174.636 571.131 173.978 570.666 173.167 570.666C172.355 570.666 171.697 571.131 171.697 571.705C171.697 572.279 172.355 572.745 173.167 572.745Z" fill="#3C3A40"/>
<path d="M230.889 572.745C231.7 572.745 232.358 572.279 232.358 571.705C232.358 571.131 231.7 570.666 230.889 570.666C230.077 570.666 229.419 571.131 229.419 571.705C229.419 572.279 230.077 572.745 230.889 572.745Z" fill="#3C3A40"/>
<path d="M288.611 572.745C289.423 572.745 290.081 572.279 290.081 571.705C290.081 571.131 289.423 570.666 288.611 570.666C287.799 570.666 287.141 571.131 287.141 571.705C287.141 572.279 287.799 572.745 288.611 572.745Z" fill="#3C3A40"/>
<path d="M346.333 572.745C347.145 572.745 347.803 572.279 347.803 571.705C347.803 571.131 347.145 570.666 346.333 570.666C345.522 570.666 344.864 571.131 344.864 571.705C344.864 572.279 345.522 572.745 346.333 572.745Z" fill="#3C3A40"/>
<path d="M404.056 572.745C404.867 572.745 405.525 572.279 405.525 571.705C405.525 571.131 404.867 570.666 404.056 570.666C403.244 570.666 402.586 571.131 402.586 571.705C402.586 572.279 403.244 572.745 404.056 572.745Z" fill="#3C3A40"/>
<path d="M461.778 572.745C462.589 572.745 463.247 572.279 463.247 571.705C463.247 571.131 462.589 570.666 461.778 570.666C460.966 570.666 460.308 571.131 460.308 571.705C460.308 572.279 460.966 572.745 461.778 572.745Z" fill="#3C3A40"/>
<path d="M519.5 572.745C520.312 572.745 520.97 572.279 520.97 571.705C520.97 571.131 520.312 570.666 519.5 570.666C518.688 570.666 518.03 571.131 518.03 571.705C518.03 572.279 518.688 572.745 519.5 572.745Z" fill="#3C3A40"/>
<path d="M577.222 572.745C578.034 572.745 578.692 572.279 578.692 571.705C578.692 571.131 578.034 570.666 577.222 570.666C576.41 570.666 575.752 571.131 575.752 571.705C575.752 572.279 576.41 572.745 577.222 572.745Z" fill="#3C3A40"/>
<path d="M634.944 572.745C635.756 572.745 636.414 572.279 636.414 571.705C636.414 571.131 635.756 570.666 634.944 570.666C634.133 570.666 633.475 571.131 633.475 571.705C633.475 572.279 634.133 572.745 634.944 572.745Z" fill="#3C3A40"/>
<path d="M692.667 572.745C693.478 572.745 694.136 572.279 694.136 571.705C694.136 571.131 693.478 570.666 692.667 570.666C691.855 570.666 691.197 571.131 691.197 571.705C691.197 572.279 691.855 572.745 692.667 572.745Z" fill="#3C3A40"/>
<path d="M750.389 572.745C751.201 572.745 751.858 572.279 751.858 571.705C751.858 571.131 751.201 570.666 750.389 570.666C749.577 570.666 748.919 571.131 748.919 571.705C748.919 572.279 749.577 572.745 750.389 572.745Z" fill="#3C3A40"/>
<path d="M808.111 572.745C808.923 572.745 809.581 572.279 809.581 571.705C809.581 571.131 808.923 570.666 808.111 570.666C807.299 570.666 806.641 571.131 806.641 571.705C806.641 572.279 807.299 572.745 808.111 572.745Z" fill="#3C3A40"/>
<path d="M865.833 572.745C866.645 572.745 867.303 572.279 867.303 571.705C867.303 571.131 866.645 570.666 865.833 570.666C865.022 570.666 864.364 571.131 864.364 571.705C864.364 572.279 865.022 572.745 865.833 572.745Z" fill="#3C3A40"/>
<path d="M923.556 572.745C924.367 572.745 925.025 572.279 925.025 571.705C925.025 571.131 924.367 570.666 923.556 570.666C922.744 570.666 922.086 571.131 922.086 571.705C922.086 572.279 922.744 572.745 923.556 572.745Z" fill="#3C3A40"/>
<path d="M981.278 572.745C982.089 572.745 982.747 572.279 982.747 571.705C982.747 571.131 982.089 570.666 981.278 570.666C980.466 570.666 979.808 571.131 979.808 571.705C979.808 572.279 980.466 572.745 981.278 572.745Z" fill="#3C3A40"/>
<path d="M1039 572.745C1039.81 572.745 1040.47 572.279 1040.47 571.705C1040.47 571.131 1039.81 570.666 1039 570.666C1038.19 570.666 1037.53 571.131 1037.53 571.705C1037.53 572.279 1038.19 572.745 1039 572.745Z" fill="#3C3A40"/>
<path d="M-8.85725e-05 613.581C0.81157 613.581 1.46955 613.115 1.46955 612.541C1.46955 611.967 0.81157 611.501 -8.85725e-05 611.501C-0.811747 611.501 -1.46973 611.967 -1.46973 612.541C-1.46973 613.115 -0.811747 613.581 -8.85725e-05 613.581Z" fill="#3C3A40"/>
<path d="M57.7221 613.581C58.5337 613.581 59.1917 613.115 59.1917 612.541C59.1917 611.967 58.5337 611.501 57.7221 611.501C56.9104 611.501 56.2524 611.967 56.2524 612.541C56.2524 613.115 56.9104 613.581 57.7221 613.581Z" fill="#3C3A40"/>
<path d="M115.444 613.581C116.256 613.581 116.914 613.115 116.914 612.541C116.914 611.967 116.256 611.501 115.444 611.501C114.633 611.501 113.975 611.967 113.975 612.541C113.975 613.115 114.633 613.581 115.444 613.581Z" fill="#3C3A40"/>
<path d="M173.167 613.581C173.978 613.581 174.636 613.115 174.636 612.541C174.636 611.967 173.978 611.501 173.167 611.501C172.355 611.501 171.697 611.967 171.697 612.541C171.697 613.115 172.355 613.581 173.167 613.581Z" fill="#3C3A40"/>
<path d="M230.889 613.581C231.7 613.581 232.358 613.115 232.358 612.541C232.358 611.967 231.7 611.501 230.889 611.501C230.077 611.501 229.419 611.967 229.419 612.541C229.419 613.115 230.077 613.581 230.889 613.581Z" fill="#3C3A40"/>
<path d="M288.611 613.581C289.423 613.581 290.081 613.115 290.081 612.541C290.081 611.967 289.423 611.501 288.611 611.501C287.799 611.501 287.141 611.967 287.141 612.541C287.141 613.115 287.799 613.581 288.611 613.581Z" fill="#3C3A40"/>
<path d="M346.333 613.581C347.145 613.581 347.803 613.115 347.803 612.541C347.803 611.967 347.145 611.501 346.333 611.501C345.522 611.501 344.864 611.967 344.864 612.541C344.864 613.115 345.522 613.581 346.333 613.581Z" fill="#3C3A40"/>
<path d="M404.056 613.581C404.867 613.581 405.525 613.115 405.525 612.541C405.525 611.967 404.867 611.501 404.056 611.501C403.244 611.501 402.586 611.967 402.586 612.541C402.586 613.115 403.244 613.581 404.056 613.581Z" fill="#3C3A40"/>
<path d="M461.778 613.581C462.589 613.581 463.247 613.115 463.247 612.541C463.247 611.967 462.589 611.501 461.778 611.501C460.966 611.501 460.308 611.967 460.308 612.541C460.308 613.115 460.966 613.581 461.778 613.581Z" fill="#3C3A40"/>
<path d="M519.5 613.581C520.312 613.581 520.97 613.115 520.97 612.541C520.97 611.967 520.312 611.501 519.5 611.501C518.688 611.501 518.03 611.967 518.03 612.541C518.03 613.115 518.688 613.581 519.5 613.581Z" fill="#3C3A40"/>
<path d="M577.222 613.581C578.034 613.581 578.692 613.115 578.692 612.541C578.692 611.967 578.034 611.501 577.222 611.501C576.41 611.501 575.752 611.967 575.752 612.541C575.752 613.115 576.41 613.581 577.222 613.581Z" fill="#3C3A40"/>
<path d="M634.944 613.581C635.756 613.581 636.414 613.115 636.414 612.541C636.414 611.967 635.756 611.501 634.944 611.501C634.133 611.501 633.475 611.967 633.475 612.541C633.475 613.115 634.133 613.581 634.944 613.581Z" fill="#3C3A40"/>
<path d="M692.667 613.581C693.478 613.581 694.136 613.115 694.136 612.541C694.136 611.967 693.478 611.501 692.667 611.501C691.855 611.501 691.197 611.967 691.197 612.541C691.197 613.115 691.855 613.581 692.667 613.581Z" fill="#3C3A40"/>
<path d="M750.389 613.581C751.201 613.581 751.858 613.115 751.858 612.541C751.858 611.967 751.201 611.501 750.389 611.501C749.577 611.501 748.919 611.967 748.919 612.541C748.919 613.115 749.577 613.581 750.389 613.581Z" fill="#3C3A40"/>
<path d="M808.111 613.581C808.923 613.581 809.581 613.115 809.581 612.541C809.581 611.967 808.923 611.501 808.111 611.501C807.299 611.501 806.641 611.967 806.641 612.541C806.641 613.115 807.299 613.581 808.111 613.581Z" fill="#3C3A40"/>
<path d="M865.833 613.581C866.645 613.581 867.303 613.115 867.303 612.541C867.303 611.967 866.645 611.501 865.833 611.501C865.022 611.501 864.364 611.967 864.364 612.541C864.364 613.115 865.022 613.581 865.833 613.581Z" fill="#3C3A40"/>
<path d="M923.556 613.581C924.367 613.581 925.025 613.115 925.025 612.541C925.025 611.967 924.367 611.501 923.556 611.501C922.744 611.501 922.086 611.967 922.086 612.541C922.086 613.115 922.744 613.581 923.556 613.581Z" fill="#3C3A40"/>
<path d="M981.278 613.581C982.089 613.581 982.747 613.115 982.747 612.541C982.747 611.967 982.089 611.501 981.278 611.501C980.466 611.501 979.808 611.967 979.808 612.541C979.808 613.115 980.466 613.581 981.278 613.581Z" fill="#3C3A40"/>
<path d="M1039 613.581C1039.81 613.581 1040.47 613.115 1040.47 612.541C1040.47 611.967 1039.81 611.501 1039 611.501C1038.19 611.501 1037.53 611.967 1037.53 612.541C1037.53 613.115 1038.19 613.581 1039 613.581Z" fill="#3C3A40"/>
<path d="M-8.85725e-05 654.417C0.81157 654.417 1.46955 653.951 1.46955 653.377C1.46955 652.803 0.81157 652.338 -8.85725e-05 652.338C-0.811747 652.338 -1.46973 652.803 -1.46973 653.377C-1.46973 653.951 -0.811747 654.417 -8.85725e-05 654.417Z" fill="#3C3A40"/>
<path d="M57.7221 654.417C58.5337 654.417 59.1917 653.951 59.1917 653.377C59.1917 652.803 58.5337 652.338 57.7221 652.338C56.9104 652.338 56.2524 652.803 56.2524 653.377C56.2524 653.951 56.9104 654.417 57.7221 654.417Z" fill="#3C3A40"/>
<path d="M115.444 654.417C116.256 654.417 116.914 653.951 116.914 653.377C116.914 652.803 116.256 652.338 115.444 652.338C114.633 652.338 113.975 652.803 113.975 653.377C113.975 653.951 114.633 654.417 115.444 654.417Z" fill="#3C3A40"/>
<path d="M173.167 654.417C173.978 654.417 174.636 653.951 174.636 653.377C174.636 652.803 173.978 652.338 173.167 652.338C172.355 652.338 171.697 652.803 171.697 653.377C171.697 653.951 172.355 654.417 173.167 654.417Z" fill="#3C3A40"/>
<path d="M230.889 654.417C231.7 654.417 232.358 653.951 232.358 653.377C232.358 652.803 231.7 652.338 230.889 652.338C230.077 652.338 229.419 652.803 229.419 653.377C229.419 653.951 230.077 654.417 230.889 654.417Z" fill="#3C3A40"/>
<path d="M288.611 654.417C289.423 654.417 290.081 653.951 290.081 653.377C290.081 652.803 289.423 652.338 288.611 652.338C287.799 652.338 287.141 652.803 287.141 653.377C287.141 653.951 287.799 654.417 288.611 654.417Z" fill="#3C3A40"/>
<path d="M346.333 654.417C347.145 654.417 347.803 653.951 347.803 653.377C347.803 652.803 347.145 652.338 346.333 652.338C345.522 652.338 344.864 652.803 344.864 653.377C344.864 653.951 345.522 654.417 346.333 654.417Z" fill="#3C3A40"/>
<path d="M404.056 654.417C404.867 654.417 405.525 653.951 405.525 653.377C405.525 652.803 404.867 652.338 404.056 652.338C403.244 652.338 402.586 652.803 402.586 653.377C402.586 653.951 403.244 654.417 404.056 654.417Z" fill="#3C3A40"/>
<path d="M461.778 654.417C462.589 654.417 463.247 653.951 463.247 653.377C463.247 652.803 462.589 652.338 461.778 652.338C460.966 652.338 460.308 652.803 460.308 653.377C460.308 653.951 460.966 654.417 461.778 654.417Z" fill="#3C3A40"/>
<path d="M519.5 654.417C520.312 654.417 520.97 653.951 520.97 653.377C520.97 652.803 520.312 652.338 519.5 652.338C518.688 652.338 518.03 652.803 518.03 653.377C518.03 653.951 518.688 654.417 519.5 654.417Z" fill="#3C3A40"/>
<path d="M577.222 654.417C578.034 654.417 578.692 653.951 578.692 653.377C578.692 652.803 578.034 652.338 577.222 652.338C576.41 652.338 575.752 652.803 575.752 653.377C575.752 653.951 576.41 654.417 577.222 654.417Z" fill="#3C3A40"/>
<path d="M634.944 654.417C635.756 654.417 636.414 653.951 636.414 653.377C636.414 652.803 635.756 652.338 634.944 652.338C634.133 652.338 633.475 652.803 633.475 653.377C633.475 653.951 634.133 654.417 634.944 654.417Z" fill="#3C3A40"/>
<path d="M692.667 654.417C693.478 654.417 694.136 653.951 694.136 653.377C694.136 652.803 693.478 652.338 692.667 652.338C691.855 652.338 691.197 652.803 691.197 653.377C691.197 653.951 691.855 654.417 692.667 654.417Z" fill="#3C3A40"/>
<path d="M750.389 654.417C751.201 654.417 751.858 653.951 751.858 653.377C751.858 652.803 751.201 652.338 750.389 652.338C749.577 652.338 748.919 652.803 748.919 653.377C748.919 653.951 749.577 654.417 750.389 654.417Z" fill="#3C3A40"/>
<path d="M808.111 654.417C808.923 654.417 809.581 653.951 809.581 653.377C809.581 652.803 808.923 652.338 808.111 652.338C807.299 652.338 806.641 652.803 806.641 653.377C806.641 653.951 807.299 654.417 808.111 654.417Z" fill="#3C3A40"/>
<path d="M865.833 654.417C866.645 654.417 867.303 653.951 867.303 653.377C867.303 652.803 866.645 652.338 865.833 652.338C865.022 652.338 864.364 652.803 864.364 653.377C864.364 653.951 865.022 654.417 865.833 654.417Z" fill="#3C3A40"/>
<path d="M923.556 654.417C924.367 654.417 925.025 653.951 925.025 653.377C925.025 652.803 924.367 652.338 923.556 652.338C922.744 652.338 922.086 652.803 922.086 653.377C922.086 653.951 922.744 654.417 923.556 654.417Z" fill="#3C3A40"/>
<path d="M981.278 654.417C982.089 654.417 982.747 653.951 982.747 653.377C982.747 652.803 982.089 652.338 981.278 652.338C980.466 652.338 979.808 652.803 979.808 653.377C979.808 653.951 980.466 654.417 981.278 654.417Z" fill="#3C3A40"/>
<path d="M1039 654.417C1039.81 654.417 1040.47 653.951 1040.47 653.377C1040.47 652.803 1039.81 652.338 1039 652.338C1038.19 652.338 1037.53 652.803 1037.53 653.377C1037.53 653.951 1038.19 654.417 1039 654.417Z" fill="#3C3A40"/>
<path d="M-8.85725e-05 695.253C0.81157 695.253 1.46955 694.787 1.46955 694.213C1.46955 693.639 0.81157 693.174 -8.85725e-05 693.174C-0.811747 693.174 -1.46973 693.639 -1.46973 694.213C-1.46973 694.787 -0.811747 695.253 -8.85725e-05 695.253Z" fill="#3C3A40"/>
<path d="M57.7221 695.253C58.5337 695.253 59.1917 694.787 59.1917 694.213C59.1917 693.639 58.5337 693.174 57.7221 693.174C56.9104 693.174 56.2524 693.639 56.2524 694.213C56.2524 694.787 56.9104 695.253 57.7221 695.253Z" fill="#3C3A40"/>
<path d="M115.444 695.253C116.256 695.253 116.914 694.787 116.914 694.213C116.914 693.639 116.256 693.174 115.444 693.174C114.633 693.174 113.975 693.639 113.975 694.213C113.975 694.787 114.633 695.253 115.444 695.253Z" fill="#3C3A40"/>
<path d="M173.167 695.253C173.978 695.253 174.636 694.787 174.636 694.213C174.636 693.639 173.978 693.174 173.167 693.174C172.355 693.174 171.697 693.639 171.697 694.213C171.697 694.787 172.355 695.253 173.167 695.253Z" fill="#3C3A40"/>
<path d="M230.889 695.253C231.7 695.253 232.358 694.787 232.358 694.213C232.358 693.639 231.7 693.174 230.889 693.174C230.077 693.174 229.419 693.639 229.419 694.213C229.419 694.787 230.077 695.253 230.889 695.253Z" fill="#3C3A40"/>
<path d="M288.611 695.253C289.423 695.253 290.081 694.787 290.081 694.213C290.081 693.639 289.423 693.174 288.611 693.174C287.799 693.174 287.141 693.639 287.141 694.213C287.141 694.787 287.799 695.253 288.611 695.253Z" fill="#3C3A40"/>
<path d="M346.333 695.253C347.145 695.253 347.803 694.787 347.803 694.213C347.803 693.639 347.145 693.174 346.333 693.174C345.522 693.174 344.864 693.639 344.864 694.213C344.864 694.787 345.522 695.253 346.333 695.253Z" fill="#3C3A40"/>
<path d="M404.056 695.253C404.867 695.253 405.525 694.787 405.525 694.213C405.525 693.639 404.867 693.174 404.056 693.174C403.244 693.174 402.586 693.639 402.586 694.213C402.586 694.787 403.244 695.253 404.056 695.253Z" fill="#3C3A40"/>
<path d="M461.778 695.253C462.589 695.253 463.247 694.787 463.247 694.213C463.247 693.639 462.589 693.174 461.778 693.174C460.966 693.174 460.308 693.639 460.308 694.213C460.308 694.787 460.966 695.253 461.778 695.253Z" fill="#3C3A40"/>
<path d="M519.5 695.253C520.312 695.253 520.97 694.787 520.97 694.213C520.97 693.639 520.312 693.174 519.5 693.174C518.688 693.174 518.03 693.639 518.03 694.213C518.03 694.787 518.688 695.253 519.5 695.253Z" fill="#3C3A40"/>
<path d="M577.222 695.253C578.034 695.253 578.692 694.787 578.692 694.213C578.692 693.639 578.034 693.174 577.222 693.174C576.41 693.174 575.752 693.639 575.752 694.213C575.752 694.787 576.41 695.253 577.222 695.253Z" fill="#3C3A40"/>
<path d="M634.944 695.253C635.756 695.253 636.414 694.787 636.414 694.213C636.414 693.639 635.756 693.174 634.944 693.174C634.133 693.174 633.475 693.639 633.475 694.213C633.475 694.787 634.133 695.253 634.944 695.253Z" fill="#3C3A40"/>
<path d="M692.667 695.253C693.478 695.253 694.136 694.787 694.136 694.213C694.136 693.639 693.478 693.174 692.667 693.174C691.855 693.174 691.197 693.639 691.197 694.213C691.197 694.787 691.855 695.253 692.667 695.253Z" fill="#3C3A40"/>
<path d="M750.389 695.253C751.201 695.253 751.858 694.787 751.858 694.213C751.858 693.639 751.201 693.174 750.389 693.174C749.577 693.174 748.919 693.639 748.919 694.213C748.919 694.787 749.577 695.253 750.389 695.253Z" fill="#3C3A40"/>
<path d="M808.111 695.253C808.923 695.253 809.581 694.787 809.581 694.213C809.581 693.639 808.923 693.174 808.111 693.174C807.299 693.174 806.641 693.639 806.641 694.213C806.641 694.787 807.299 695.253 808.111 695.253Z" fill="#3C3A40"/>
<path d="M865.833 695.253C866.645 695.253 867.303 694.787 867.303 694.213C867.303 693.639 866.645 693.174 865.833 693.174C865.022 693.174 864.364 693.639 864.364 694.213C864.364 694.787 865.022 695.253 865.833 695.253Z" fill="#3C3A40"/>
<path d="M923.556 695.253C924.367 695.253 925.025 694.787 925.025 694.213C925.025 693.639 924.367 693.174 923.556 693.174C922.744 693.174 922.086 693.639 922.086 694.213C922.086 694.787 922.744 695.253 923.556 695.253Z" fill="#3C3A40"/>
<path d="M981.278 695.253C982.089 695.253 982.747 694.787 982.747 694.213C982.747 693.639 982.089 693.174 981.278 693.174C980.466 693.174 979.808 693.639 979.808 694.213C979.808 694.787 980.466 695.253 981.278 695.253Z" fill="#3C3A40"/>
<path d="M1039 695.253C1039.81 695.253 1040.47 694.787 1040.47 694.213C1040.47 693.639 1039.81 693.174 1039 693.174C1038.19 693.174 1037.53 693.639 1037.53 694.213C1037.53 694.787 1038.19 695.253 1039 695.253Z" fill="#3C3A40"/>
<path d="M-8.85725e-05 736.089C0.81157 736.089 1.46955 735.624 1.46955 735.049C1.46955 734.475 0.81157 734.01 -8.85725e-05 734.01C-0.811747 734.01 -1.46973 734.475 -1.46973 735.049C-1.46973 735.624 -0.811747 736.089 -8.85725e-05 736.089Z" fill="#3C3A40"/>
<path d="M57.7221 736.089C58.5337 736.089 59.1917 735.624 59.1917 735.049C59.1917 734.475 58.5337 734.01 57.7221 734.01C56.9104 734.01 56.2524 734.475 56.2524 735.049C56.2524 735.624 56.9104 736.089 57.7221 736.089Z" fill="#3C3A40"/>
<path d="M115.444 736.089C116.256 736.089 116.914 735.624 116.914 735.049C116.914 734.475 116.256 734.01 115.444 734.01C114.633 734.01 113.975 734.475 113.975 735.049C113.975 735.624 114.633 736.089 115.444 736.089Z" fill="#3C3A40"/>
<path d="M173.167 736.089C173.978 736.089 174.636 735.624 174.636 735.049C174.636 734.475 173.978 734.01 173.167 734.01C172.355 734.01 171.697 734.475 171.697 735.049C171.697 735.624 172.355 736.089 173.167 736.089Z" fill="#3C3A40"/>
<path d="M230.889 736.089C231.7 736.089 232.358 735.624 232.358 735.049C232.358 734.475 231.7 734.01 230.889 734.01C230.077 734.01 229.419 734.475 229.419 735.049C229.419 735.624 230.077 736.089 230.889 736.089Z" fill="#3C3A40"/>
<path d="M288.611 736.089C289.423 736.089 290.081 735.624 290.081 735.049C290.081 734.475 289.423 734.01 288.611 734.01C287.799 734.01 287.141 734.475 287.141 735.049C287.141 735.624 287.799 736.089 288.611 736.089Z" fill="#3C3A40"/>
<path d="M346.333 736.089C347.145 736.089 347.803 735.624 347.803 735.049C347.803 734.475 347.145 734.01 346.333 734.01C345.522 734.01 344.864 734.475 344.864 735.049C344.864 735.624 345.522 736.089 346.333 736.089Z" fill="#3C3A40"/>
<path d="M404.056 736.089C404.867 736.089 405.525 735.624 405.525 735.049C405.525 734.475 404.867 734.01 404.056 734.01C403.244 734.01 402.586 734.475 402.586 735.049C402.586 735.624 403.244 736.089 404.056 736.089Z" fill="#3C3A40"/>
<path d="M461.778 736.089C462.589 736.089 463.247 735.624 463.247 735.049C463.247 734.475 462.589 734.01 461.778 734.01C460.966 734.01 460.308 734.475 460.308 735.049C460.308 735.624 460.966 736.089 461.778 736.089Z" fill="#3C3A40"/>
<path d="M519.5 736.089C520.312 736.089 520.97 735.624 520.97 735.049C520.97 734.475 520.312 734.01 519.5 734.01C518.688 734.01 518.03 734.475 518.03 735.049C518.03 735.624 518.688 736.089 519.5 736.089Z" fill="#3C3A40"/>
<path d="M577.222 736.089C578.034 736.089 578.692 735.624 578.692 735.049C578.692 734.475 578.034 734.01 577.222 734.01C576.41 734.01 575.752 734.475 575.752 735.049C575.752 735.624 576.41 736.089 577.222 736.089Z" fill="#3C3A40"/>
<path d="M634.944 736.089C635.756 736.089 636.414 735.624 636.414 735.049C636.414 734.475 635.756 734.01 634.944 734.01C634.133 734.01 633.475 734.475 633.475 735.049C633.475 735.624 634.133 736.089 634.944 736.089Z" fill="#3C3A40"/>
<path d="M692.667 736.089C693.478 736.089 694.136 735.624 694.136 735.049C694.136 734.475 693.478 734.01 692.667 734.01C691.855 734.01 691.197 734.475 691.197 735.049C691.197 735.624 691.855 736.089 692.667 736.089Z" fill="#3C3A40"/>
<path d="M750.389 736.089C751.201 736.089 751.858 735.624 751.858 735.049C751.858 734.475 751.201 734.01 750.389 734.01C749.577 734.01 748.919 734.475 748.919 735.049C748.919 735.624 749.577 736.089 750.389 736.089Z" fill="#3C3A40"/>
<path d="M808.111 736.089C808.923 736.089 809.581 735.624 809.581 735.049C809.581 734.475 808.923 734.01 808.111 734.01C807.299 734.01 806.641 734.475 806.641 735.049C806.641 735.624 807.299 736.089 808.111 736.089Z" fill="#3C3A40"/>
<path d="M865.833 736.089C866.645 736.089 867.303 735.624 867.303 735.049C867.303 734.475 866.645 734.01 865.833 734.01C865.022 734.01 864.364 734.475 864.364 735.049C864.364 735.624 865.022 736.089 865.833 736.089Z" fill="#3C3A40"/>
<path d="M923.556 736.089C924.367 736.089 925.025 735.624 925.025 735.049C925.025 734.475 924.367 734.01 923.556 734.01C922.744 734.01 922.086 734.475 922.086 735.049C922.086 735.624 922.744 736.089 923.556 736.089Z" fill="#3C3A40"/>
<path d="M981.278 736.089C982.089 736.089 982.747 735.624 982.747 735.049C982.747 734.475 982.089 734.01 981.278 734.01C980.466 734.01 979.808 734.475 979.808 735.049C979.808 735.624 980.466 736.089 981.278 736.089Z" fill="#3C3A40"/>
<path d="M1039 736.089C1039.81 736.089 1040.47 735.624 1040.47 735.049C1040.47 734.475 1039.81 734.01 1039 734.01C1038.19 734.01 1037.53 734.475 1037.53 735.049C1037.53 735.624 1038.19 736.089 1039 736.089Z" fill="#3C3A40"/>
</g>
<defs>
<clipPath id="clip0_2276_443">
<rect width="1039" height="735.049" fill="white"/>
</clipPath>
</defs>
</svg>
