<svg width="46" height="51" viewBox="0 0 46 51" fill="none" xmlns="http://www.w3.org/2000/svg">
<path d="M43.7154 -0.000106812C42.5676 -0.000106812 41.6349 0.932538 41.6349 2.08225V11.1346C38.1987 6.88343 32.945 4.16276 27.0677 4.16276C24.1538 4.16276 21.3945 4.83235 18.9332 6.02437C18.7107 6.1329 18.4881 6.24511 18.271 6.36284C12.3661 9.51581 8.33936 15.7426 8.33936 22.8911C8.33936 27.339 9.89928 31.432 12.5004 34.6475C13.4551 35.8285 14.5496 36.8917 15.76 37.8115C15.7637 37.8152 15.7692 37.817 15.7729 37.8207C18.0006 39.5112 20.6146 40.7143 23.4585 41.2698C23.51 41.2809 23.5615 41.2919 23.6093 41.3011C23.7455 41.3269 23.8816 41.3508 24.0177 41.3728C24.0324 41.3747 24.0471 41.3765 24.06 41.3784C25.0405 41.5384 26.0449 41.6212 27.0677 41.6212C29.1316 41.6212 31.1165 41.2864 32.9744 40.6665C33.2448 40.5763 33.5134 40.4807 33.7783 40.3758C33.782 40.374 33.7856 40.374 33.7893 40.3721C34.5932 40.0613 35.3713 39.697 36.1182 39.2831H36.12C41.2983 36.4135 44.9792 31.1598 45.6745 25.012C45.7205 24.611 45.7536 24.2045 45.772 23.7961V23.7593C45.7868 23.5073 45.7923 23.2534 45.7941 22.9977C45.7978 22.9628 45.7978 22.9278 45.7978 22.8911V2.08225C45.7978 0.932538 44.8652 -0.000106812 43.7154 -0.000106812ZM41.2339 26.2923C39.6979 32.6902 33.931 37.4583 27.0677 37.4583C26.0357 37.4583 25.0295 37.3516 24.06 37.1456C19.7408 36.235 16.1224 33.4058 14.1376 29.5943C13.0909 27.5874 12.5004 25.3064 12.5004 22.8911C12.5004 17.7624 15.1659 13.2427 19.1853 10.6453C21.4589 9.17733 24.1649 8.32378 27.0677 8.32378C31.0245 8.32378 34.6189 9.90946 37.2458 12.4811C38.6843 13.8865 39.834 15.5863 40.5938 17.4828C40.5938 17.4828 40.5938 17.4847 40.5956 17.4883C41.267 19.1586 41.6349 20.9816 41.6349 22.8911C41.6349 24.0628 41.497 25.2015 41.2339 26.2923Z" fill="#502C84"/>
<path d="M40.582 46.3298C36.4853 48.6973 31.8056 49.95 27.0522 49.95C25.2587 49.95 23.5056 49.7753 21.8077 49.4386C9.39267 46.9921 0 36.0211 0 22.8979C0 18.1445 1.25272 13.4647 3.62021 9.36809C4.19598 8.37474 5.47078 8.03443 6.46413 8.6102C6.46964 8.61388 6.477 8.61756 6.48252 8.62124C7.46299 9.20253 7.79411 10.4626 7.22202 11.4541C5.2206 14.9161 4.16103 18.8748 4.16103 22.8979C4.16103 34.0583 12.1869 43.3774 22.7698 45.388C24.5468 45.8332 26.4065 46.0686 28.3196 46.0686C32.3445 46.0686 36.3014 45.009 39.7634 43.0076C39.9602 42.8936 40.1681 42.8163 40.3778 42.7722C40.3815 42.7722 40.3833 42.7722 40.3852 42.7703L40.6004 42.7391C40.8965 42.9138 41.1541 43.1658 41.3399 43.4859C41.9156 44.4793 41.5753 45.7541 40.582 46.3298Z" fill="url(#paint0_linear_2245_8)"/>
<path d="M11.932 5.72715C11.5733 6.04355 11.2312 6.36363 10.9111 6.68003C10.5597 7.03138 10.1109 7.23189 9.64917 7.27788C9.58111 7.2834 9.51304 7.28708 9.44314 7.28708C8.90968 7.28708 8.37621 7.08473 7.97151 6.67451C7.15844 5.86328 7.15844 4.54618 7.97335 3.73494C8.35046 3.35784 8.757 2.97705 9.17825 2.60546C9.87175 1.99474 10.8577 1.92852 11.612 2.37552C11.7959 2.48222 11.9651 2.62202 12.1141 2.79126C12.8757 3.65032 12.7948 4.96559 11.932 5.72715Z" fill="url(#paint1_linear_2245_8)"/>
<path d="M41.8174 46.6223C37.7226 48.9898 33.0429 50.2444 28.2877 50.2444C26.0434 50.2444 23.8617 49.9703 21.7757 49.4515C9.99534 46.5285 1.23547 35.8629 1.23547 23.1904C1.23547 18.437 2.4882 13.7572 4.85568 9.66242C5.20519 9.05906 5.80672 8.69851 6.45055 8.63412C7.43103 9.21542 7.76214 10.4755 7.19005 11.467C5.18863 14.929 4.12906 18.8877 4.12906 22.9107C4.12906 34.0712 12.155 43.3903 22.7378 45.4009C24.5148 45.846 26.3746 46.0815 28.2877 46.0815C32.3126 46.0815 36.2694 45.0219 39.7314 43.0205C39.9282 42.9065 40.1361 42.8292 40.3458 42.7851C40.3495 42.7851 40.3513 42.7851 40.3532 42.7832L40.5684 42.7519C41.3557 42.6728 42.1522 43.0499 42.5753 43.7784C43.1511 44.7736 42.8108 46.0466 41.8174 46.6223Z" fill="#F50569"/>
<path d="M11.902 5.73441C11.5433 6.05081 11.2011 6.37089 10.881 6.68729C10.5297 7.03864 10.0808 7.23915 9.61912 7.28514C9.47196 7.19684 9.33399 7.09015 9.2089 6.96322C8.39767 6.15014 8.39767 4.83304 9.21074 4.02181C9.58785 3.6447 9.99439 3.26576 10.4156 2.89233C10.7541 2.59433 11.1643 2.42509 11.5819 2.38278C11.7659 2.48947 11.9351 2.62928 12.0841 2.79852C12.8457 3.65758 12.7647 4.97284 11.902 5.73441Z" fill="#F50569"/>
<path d="M45.7732 2.08225V22.891C45.7732 22.9278 45.7732 22.9628 45.7695 22.9977C45.7677 23.2534 45.7622 23.5073 45.7474 23.7593V23.7961C45.7291 24.2045 45.6959 24.611 45.65 25.012C44.2464 25.6099 42.76 26.044 41.2093 26.2923C41.4724 25.2015 41.6103 24.0628 41.6103 22.891C41.6103 20.9816 41.2424 19.1586 40.571 17.4883C40.5692 17.4847 40.5692 17.4828 40.5692 17.4828C39.8094 15.5863 38.6597 13.8865 37.2212 12.4811C34.5944 9.90946 30.9999 8.32378 27.0431 8.32378C24.1403 8.32378 21.4343 9.17733 19.1607 10.6453C18.9675 9.55443 18.8663 8.43048 18.8663 7.28261C18.8663 6.85952 18.8792 6.4401 18.9086 6.02436C21.3699 4.83235 24.1292 4.16276 27.0431 4.16276C32.9204 4.16276 38.1741 6.88343 41.6103 11.1346V2.08225C41.6103 0.932538 42.543 -0.000106812 43.6909 -0.000106812C44.8406 -0.000106812 45.7732 0.932538 45.7732 2.08225Z" fill="url(#paint2_linear_2245_8)"/>
<path d="M45.7677 23.7637V23.8005C45.7493 24.2089 45.7162 24.6154 45.6702 25.0164C44.9749 31.1642 41.2939 36.4179 36.1157 39.2875H36.1138C28.844 40.8254 24.0557 37.15 24.0557 37.15C25.0251 37.356 26.0313 37.4627 27.0633 37.4627C33.9266 37.4627 39.6936 32.6946 41.2296 26.2967C41.4926 25.2059 41.6306 24.0672 41.6306 22.8955C41.6306 20.986 41.2627 19.163 40.5912 17.4927C40.5894 17.4891 40.5894 17.4872 40.5894 17.4872C40.5894 17.4872 45.8118 20.8149 45.7677 23.7637Z" fill="url(#paint3_linear_2245_8)"/>
<path d="M24.06 41.3801C24.0471 41.3783 24.0324 41.3764 24.0177 41.3746C23.9147 41.3617 23.7767 41.3378 23.6093 41.3029C23.5615 41.2937 23.51 41.2826 23.4585 41.2716C22.0347 40.957 18.8872 39.971 15.7729 37.8225C15.7692 37.8188 15.7637 37.8169 15.76 37.8133C14.5496 36.8935 13.4551 35.8303 12.5004 34.6493C9.89928 31.4338 8.33936 27.3408 8.33936 22.8928C8.33936 15.7444 12.3661 9.51755 18.271 6.36459C16.3579 7.83622 9.46883 13.8221 9.87353 23.257C10.2212 31.4172 15.8778 38.7018 24.06 41.3801Z" fill="url(#paint4_linear_2245_8)"/>
<path d="M8.36084 23.9596C10.5738 27.3958 12.8548 29.8553 14.5509 31.4722C16.6498 33.4718 18.5647 35.2635 21.5264 36.3985C22.3689 36.7204 24.3703 37.4673 27.0579 37.4673C27.904 37.4673 28.6141 37.3937 29.1218 37.3201C29.2929 37.298 29.5468 37.2594 29.8503 37.1987C30.6965 37.0276 31.298 36.805 31.5702 36.7075C32.8763 36.2403 33.5275 35.911 34.3314 35.946C36.7117 36.0471 37.8063 36.6027 39.0167 37.3017C38.1539 38.0209 36.8994 38.9352 35.2493 39.7391C31.7468 41.4462 28.5644 41.6301 27.056 41.6301C25.2422 41.6301 23.7081 41.3652 22.5584 41.0801C19.2582 40.2615 16.9184 38.72 15.6454 37.7413C14.4828 36.8473 12.9376 35.4401 11.5635 33.4111C9.04883 29.6934 8.4988 25.9444 8.36084 23.9596Z" fill="url(#paint5_linear_2245_8)"/>
<defs>
<linearGradient id="paint0_linear_2245_8" x1="-0.72544" y1="3.83222" x2="28.7697" y2="49.7658" gradientUnits="userSpaceOnUse">
<stop offset="0.0789" stop-color="#FFA6CE"/>
<stop offset="0.1718" stop-color="#FE94C3"/>
<stop offset="0.3576" stop-color="#FB66A6"/>
<stop offset="0.6166" stop-color="#F61D78"/>
<stop offset="0.696" stop-color="#F50569"/>
</linearGradient>
<linearGradient id="paint1_linear_2245_8" x1="7.03269" y1="0.0666329" x2="36.5278" y2="46.0002" gradientUnits="userSpaceOnUse">
<stop offset="0.00974188" stop-color="#FFA6CE"/>
<stop offset="0.0918" stop-color="#FB6DAA"/>
<stop offset="0.1806" stop-color="#F83587"/>
<stop offset="0.2469" stop-color="#F61271"/>
<stop offset="0.2825" stop-color="#F50569"/>
</linearGradient>
<linearGradient id="paint2_linear_2245_8" x1="29.7494" y1="19.8536" x2="46.8406" y2="-9.43337" gradientUnits="userSpaceOnUse">
<stop offset="0.0327" stop-color="#502C84" stop-opacity="0"/>
<stop offset="0.1082" stop-color="#4A4793" stop-opacity="0.1499"/>
<stop offset="0.3131" stop-color="#398CB8" stop-opacity="0.5567"/>
<stop offset="0.4612" stop-color="#2FB7CF" stop-opacity="0.8507"/>
<stop offset="0.5364" stop-color="#2BC8D8"/>
</linearGradient>
<linearGradient id="paint3_linear_2245_8" x1="2.20519" y1="28.8298" x2="66.8762" y2="28.3516" gradientUnits="userSpaceOnUse">
<stop offset="0.2687" stop-color="#E74986"/>
<stop offset="0.3292" stop-color="#E24886" stop-opacity="0.8584"/>
<stop offset="0.4004" stop-color="#D44586" stop-opacity="0.6917"/>
<stop offset="0.477" stop-color="#BC4185" stop-opacity="0.5124"/>
<stop offset="0.5575" stop-color="#9B3A85" stop-opacity="0.3242"/>
<stop offset="0.64" stop-color="#713284" stop-opacity="0.131"/>
<stop offset="0.696" stop-color="#502C84" stop-opacity="0"/>
</linearGradient>
<linearGradient id="paint4_linear_2245_8" x1="4.43123" y1="0.0836343" x2="31.0614" y2="50.6669" gradientUnits="userSpaceOnUse">
<stop offset="0.1898" stop-color="#AB76FF"/>
<stop offset="0.2703" stop-color="#A773FA" stop-opacity="0.8408"/>
<stop offset="0.3652" stop-color="#9D6AEC" stop-opacity="0.6535"/>
<stop offset="0.4672" stop-color="#8B5CD4" stop-opacity="0.452"/>
<stop offset="0.5742" stop-color="#7348B3" stop-opacity="0.2405"/>
<stop offset="0.6842" stop-color="#542F89" stop-opacity="0.0232"/>
<stop offset="0.696" stop-color="#502C84" stop-opacity="0"/>
</linearGradient>
<linearGradient id="paint5_linear_2245_8" x1="9.50483" y1="30.7264" x2="47.3703" y2="42.2032" gradientUnits="userSpaceOnUse">
<stop offset="0.1746" stop-color="#502C84" stop-opacity="0"/>
<stop offset="0.2476" stop-color="#674572" stop-opacity="0.0971"/>
<stop offset="0.4168" stop-color="#987A4D" stop-opacity="0.3225"/>
<stop offset="0.5751" stop-color="#BFA430" stop-opacity="0.5331"/>
<stop offset="0.7176" stop-color="#DBC21B" stop-opacity="0.7227"/>
<stop offset="0.8392" stop-color="#ECD40F" stop-opacity="0.8847"/>
<stop offset="0.9259" stop-color="#F2DB0A"/>
</linearGradient>
</defs>
</svg>
